<?xml version="1.0" encoding="UTF-8"?> <svg xmlns="http://www.w3.org/2000/svg" id="Layer_1" data-name="Layer 1" viewBox="0 0 885 885"><defs><style> .cls-1 { fill: none; stroke: #17becf; stroke-linecap: round; stroke-linejoin: round; stroke-width: 60px; } </style></defs><path class="cls-1" d="M305,442.5H103.33c-25.67,0-38.5,0-48.31,5-8.62,4.4-15.64,11.4-20.03,20.03-5,9.8-5,22.64-5,48.31v265.83c0,25.67,0,38.5,5,48.31,4.39,8.63,11.41,15.63,20.03,20.03,9.8,5,22.64,5,48.31,5h201.67M305,855h275M305,855V286.67c0-25.67,0-38.5,5-48.31,4.39-8.62,11.41-15.64,20.03-20.03,9.8-5,22.64-5,48.31-5h128.33c25.67,0,38.5,0,48.31,5,8.63,4.39,15.63,11.41,20.03,20.03,5,9.8,5,22.64,5,48.31v568.33M580,855h201.67c25.67,0,38.5,0,48.31-5,8.63-4.4,15.63-11.4,20.03-20.03,5-9.8,5-22.64,5-48.31V103.33c0-25.67,0-38.5-5-48.31-4.4-8.62-11.4-15.64-20.03-20.03-9.8-5-22.64-5-48.31-5h-128.33c-25.67,0-38.5,0-48.31,5-8.63,4.39-15.63,11.41-20.03,20.03-5,9.8-5,22.64-5,48.31v155.83"></path></svg> 