<?xml version="1.0" encoding="UTF-8"?> <svg xmlns="http://www.w3.org/2000/svg" id="Layer_1" data-name="Layer 1" viewBox="0 0 885 885"><defs><style> .cls-1 { fill: none; stroke: #17becf; stroke-linecap: round; stroke-linejoin: round; stroke-width: 60px; } </style></defs><path class="cls-1" d="M213.33,367.58v68.75M625.83,367.58v68.75M373.75,578.42c36.67,0,68.75-32.08,68.75-68.75v-142.09M566.26,697.58c-82.5,82.5-215.42,82.5-297.92,0M7.08,358.41v385c0,77.01,0,115.51,14.99,144.92,13.18,25.87,34.22,46.91,60.09,60.09,29.41,14.99,67.92,14.99,144.92,14.99h385c77.01,0,115.51,0,144.92-14.99,25.87-13.18,46.91-34.21,60.09-60.09,14.99-29.42,14.99-67.92,14.99-144.92v-385c0-77.01,0-115.51-14.99-144.92-13.18-25.87-34.21-46.91-60.09-60.09-29.42-14.99-67.92-14.99-144.92-14.99H227.08c-77.01,0-115.51,0-144.92,14.99-25.87,13.18-46.91,34.22-60.09,60.09-14.99,29.41-14.99,67.92-14.99,144.92Z"></path></svg> 