<?xml version="1.0" encoding="UTF-8"?> <svg xmlns="http://www.w3.org/2000/svg" id="Layer_1" data-name="Layer 1" viewBox="0 0 976.67 976.67"><defs><style> .cls-1 { fill: none; stroke: #17becf; stroke-linecap: round; stroke-linejoin: round; stroke-width: 60px; } </style></defs><path class="cls-1" d="M442.5,144.58h334.58c51.34,0,77.01,0,96.62,9.99,17.25,8.79,31.27,22.81,40.06,40.06,9.99,19.61,9.99,45.28,9.99,96.62v59.58c0,42.71,0,64.07-6.98,80.91-9.3,22.46-27.15,40.31-49.61,49.61-16.85,6.98-38.2,6.98-80.91,6.98M534.17,832.08H199.58c-51.34,0-77.01,0-96.62-9.99-17.25-8.79-31.27-22.81-40.06-40.06-9.99-19.61-9.99-45.28-9.99-96.62v-59.58c0-42.71,0-64.07,6.98-80.91,9.3-22.46,27.15-40.31,49.61-49.61,16.85-6.98,38.2-6.98,80.91-6.98M410.42,602.92h155.83c12.83,0,19.25,0,24.15-2.5,4.31-2.2,7.82-5.7,10.01-10.01,2.5-4.9,2.5-11.32,2.5-24.15v-155.83c0-12.83,0-19.25-2.5-24.15-2.2-4.31-5.7-7.82-10.01-10.01-4.9-2.5-11.32-2.5-24.15-2.5h-155.83c-12.83,0-19.25,0-24.15,2.5-4.31,2.2-7.82,5.7-10.01,10.01-2.5,4.9-2.5,11.32-2.5,24.15v155.83c0,12.83,0,19.25,2.5,24.15,2.2,4.31,5.7,7.82,10.01,10.01,4.9,2.5,11.32,2.5,24.15,2.5ZM754.17,946.67h155.83c12.83,0,19.25,0,24.15-2.5,4.31-2.2,7.82-5.7,10.01-10.01,2.5-4.9,2.5-11.32,2.5-24.15v-155.83c0-12.83,0-19.25-2.5-24.15-2.2-4.31-5.7-7.82-10.01-10.01-4.9-2.5-11.32-2.5-24.15-2.5h-155.83c-12.83,0-19.25,0-24.15,2.5-4.31,2.2-7.82,5.7-10.01,10.01-2.5,4.9-2.5,11.32-2.5,24.15v155.83c0,12.83,0,19.25,2.5,24.15,2.2,4.31,5.7,7.82,10.01,10.01,4.9,2.5,11.32,2.5,24.15,2.5ZM66.67,259.17h155.83c12.83,0,19.25,0,24.15-2.5,4.31-2.2,7.82-5.7,10.01-10.01,2.5-4.9,2.5-11.32,2.5-24.15V66.67c0-12.83,0-19.25-2.5-24.15-2.2-4.31-5.7-7.82-10.01-10.01-4.9-2.5-11.32-2.5-24.15-2.5H66.67c-12.83,0-19.25,0-24.15,2.5-4.31,2.2-7.82,5.7-10.01,10.01-2.5,4.9-2.5,11.32-2.5,24.15v155.83c0,12.83,0,19.25,2.5,24.15,2.2,4.31,5.7,7.82,10.01,10.01,4.9,2.5,11.32,2.5,24.15,2.5Z"></path></svg> 