<?xml version="1.0" encoding="UTF-8"?> <svg xmlns="http://www.w3.org/2000/svg" id="Layer_1" data-name="Layer 1" viewBox="0 0 930.83 963.47"><defs><style> .cls-1 { fill: none; stroke: #17becf; stroke-linecap: round; stroke-linejoin: round; stroke-width: 60px; } </style></defs><path class="cls-1" d="M832.08,265.3l-389.58,216.44M442.5,481.74L52.92,265.3M442.5,481.74v435.42M534.17,889.14l-56.05,31.14c-13,7.22-19.5,10.83-26.38,12.25-6.1,1.26-12.37,1.26-18.47,0-6.88-1.42-13.38-5.02-26.38-12.25l-339.17-188.43c-13.73-7.63-20.59-11.44-25.59-16.87-4.42-4.79-7.77-10.48-9.82-16.68-2.31-7-2.31-14.85-2.31-30.56v-372.03c0-15.7,0-23.56,2.31-30.56,2.05-6.2,5.39-11.88,9.82-16.68,5-5.42,11.86-9.24,25.59-16.86L406.89,43.19c13-7.22,19.5-10.83,26.38-12.25,6.09-1.25,12.37-1.25,18.47,0,6.88,1.42,13.38,5.03,26.38,12.25l339.17,188.43c13.73,7.63,20.59,11.44,25.59,16.86,4.42,4.8,7.77,10.49,9.81,16.68,2.31,7,2.31,14.86,2.31,30.56v208.93M236.25,137.99l412.5,229.17M625.83,756.74l91.67,91.67,183.33-183.33"></path></svg> 