<?xml version="1.0" encoding="UTF-8" standalone="no"?>
<!-- Created with Inkscape (http://www.inkscape.org/) -->

<svg
   version="1.1"
   id="svg2046"
   xml:space="preserve"
   width="682.66669"
   height="682.66669"
   viewBox="0 0 682.66669 682.66669"
   xmlns="http://www.w3.org/2000/svg"
   xmlns:svg="http://www.w3.org/2000/svg"><defs
     id="defs2050"><clipPath
       clipPathUnits="userSpaceOnUse"
       id="clipPath2060"><path
         d="M 0,512 H 512 V 0 H 0 Z"
         id="path2058" /></clipPath></defs><g
     id="g2052"
     transform="matrix(1.3333333,0,0,-1.3333333,0,682.66667)"><g
       id="g2054"><g
         id="g2056"
         clip-path="url(#clipPath2060)"><g
           id="g2062"
           transform="translate(166.3975,40.1318)"><path
             d="M 0,0 C 6.904,-1.82 15.874,-2.885 30.183,-2.282 63.491,-0.886 64.792,19.882 63.48,29.822"
             style="fill:none;stroke:#000000;stroke-width:15;stroke-linecap:round;stroke-linejoin:round;stroke-miterlimit:10;stroke-dasharray:none;stroke-opacity:1"
             id="path2064" /></g><g
           id="g2066"
           transform="translate(282.1113,69.8623)"><path
             d="m 0,0 c -1.288,-9.975 0.112,-30.621 33.318,-32.012 43.891,-1.85 37.531,12 75.481,15.179 34.233,2.863 64.472,-29.978 74.012,-41.567 1.302,-1.582 0.178,-3.962 -1.872,-3.962 h -414.101 c -2.05,0 -3.174,2.38 -1.871,3.962 9.54,11.589 39.778,44.43 74.012,41.567 4.424,-0.37 8.246,-0.886 11.616,-1.505"
             style="fill:none;stroke:#000000;stroke-width:15;stroke-linecap:round;stroke-linejoin:round;stroke-miterlimit:10;stroke-dasharray:none;stroke-opacity:1"
             id="path2068" /></g><g
           id="g2070"
           transform="translate(150.3506,114.5)"><path
             d="m 0,0 h -116.851 c -14.359,0 -26,11.641 -26,26 v 284 h 497 V 26 c 0,-14.359 -11.64,-26 -26,-26 H 210.495"
             style="fill:none;stroke:#000000;stroke-width:15;stroke-linecap:round;stroke-linejoin:round;stroke-miterlimit:10;stroke-dasharray:none;stroke-opacity:1"
             id="path2072" /></g><g
           id="g2074"
           transform="translate(425.7695,504.5)"><path
             d="m 0,0 h 52.73 c 14.36,0 26,-11.641 26,-26 v -54 h -497 v 54 c 0,14.359 11.641,26 26,26 h 357.808"
             style="fill:none;stroke:#000000;stroke-width:15;stroke-linecap:round;stroke-linejoin:round;stroke-miterlimit:10;stroke-dasharray:none;stroke-opacity:1"
             id="path2076" /></g><g
           id="g2078"
           transform="translate(90.2305,464.8276)"><path
             d="m 0,0 c 0,-8.836 -7.163,-16 -16,-16 -8.836,0 -16,7.164 -16,16 0,8.837 7.164,16 16,16 C -7.163,16 0,8.837 0,0 Z"
             style="fill:none;stroke:#000000;stroke-width:15;stroke-linecap:round;stroke-linejoin:round;stroke-miterlimit:10;stroke-dasharray:none;stroke-opacity:1"
             id="path2080" /></g><g
           id="g2082"
           transform="translate(148.8975,464.8276)"><path
             d="m 0,0 c 0,-8.836 -7.163,-16 -16,-16 -8.837,0 -16,7.164 -16,16 0,8.837 7.163,16 16,16 C -7.163,16 0,8.837 0,0 Z"
             style="fill:none;stroke:#000000;stroke-width:15;stroke-linecap:round;stroke-linejoin:round;stroke-miterlimit:10;stroke-dasharray:none;stroke-opacity:1"
             id="path2084" /></g><g
           id="g2086"
           transform="translate(207.5645,464.8276)"><path
             d="m 0,0 c 0,-8.836 -7.164,-16 -16,-16 -8.837,0 -16,7.164 -16,16 0,8.837 7.163,16 16,16 C -7.164,16 0,8.837 0,0 Z"
             style="fill:none;stroke:#000000;stroke-width:15;stroke-linecap:round;stroke-linejoin:round;stroke-miterlimit:10;stroke-dasharray:none;stroke-opacity:1"
             id="path2088" /></g><g
           id="g2090"
           transform="translate(200.8633,108.8823)"><path
             d="m 0,0 -44.898,-19.087 c -2.821,-1.199 -5.897,1.062 -5.594,4.112 l 1.895,19.127 c 0.842,8.494 4.837,16.363 11.197,22.056 L -12,48.945"
             style="fill:none;stroke:#000000;stroke-width:15;stroke-linecap:round;stroke-linejoin:round;stroke-miterlimit:10;stroke-dasharray:none;stroke-opacity:1"
             id="path2092" /></g><g
           id="g2094"
           transform="translate(310.876,108.9927)"><path
             d="m 0,0 45.159,-19.197 c 2.82,-1.199 5.897,1.061 5.594,4.112 L 48.857,4.042 c -0.841,8.493 -4.836,16.363 -11.196,22.056 l -25.4,22.736"
             style="fill:none;stroke:#000000;stroke-width:15;stroke-linecap:round;stroke-linejoin:round;stroke-miterlimit:10;stroke-dasharray:none;stroke-opacity:1"
             id="path2096" /></g><g
           id="g2098"
           transform="translate(331.4609,235.0361)"><path
             d="m 0,0 c 0,-50.463 -22.273,-128.648 -22.273,-128.648 h -106.376 c 0,0 -22.273,78.185 -22.273,128.648 0,83.042 66.518,147.293 74.647,152.005 0.503,0.291 1.119,0.291 1.622,0 C -66.523,147.294 0,83.042 0,0 Z"
             style="fill:none;stroke:#000000;stroke-width:15;stroke-linecap:round;stroke-linejoin:round;stroke-miterlimit:10;stroke-dasharray:none;stroke-opacity:1"
             id="path2100" /></g><g
           id="g2102"
           transform="translate(295.9932,71.2407)"><path
             d="m 0,0 h -79.986 c -3.05,0 -5.695,2.111 -6.369,5.085 l -6.827,30.062 H 13.194 L 6.369,5.085 C 5.694,2.111 3.05,0 0,0 Z"
             style="fill:none;stroke:#000000;stroke-width:15;stroke-linecap:round;stroke-linejoin:round;stroke-miterlimit:10;stroke-dasharray:none;stroke-opacity:1"
             id="path2104" /></g><g
           id="g2106"
           transform="translate(215.3076,338.853)"><path
             d="M 0,0 H 81.436"
             style="fill:none;stroke:#000000;stroke-width:15;stroke-linecap:round;stroke-linejoin:round;stroke-miterlimit:10;stroke-dasharray:none;stroke-opacity:1"
             id="path2108" /></g><g
           id="g2110"
           transform="translate(287,227.25)"><path
             d="m 0,0 c 0,-17.121 -13.879,-31 -31,-31 -17.121,0 -31,13.879 -31,31 0,17.121 13.879,31 31,31 C -13.879,31 0,17.121 0,0 Z"
             style="fill:none;stroke:#000000;stroke-width:15;stroke-linecap:round;stroke-linejoin:round;stroke-miterlimit:10;stroke-dasharray:none;stroke-opacity:1"
             id="path2112" /></g><g
           id="g2114"
           transform="translate(51.2305,363.0562)"><path
             d="M 0,0 H 93.539"
             style="fill:none;stroke:#000000;stroke-width:15;stroke-linecap:round;stroke-linejoin:round;stroke-miterlimit:10;stroke-dasharray:none;stroke-opacity:1"
             id="path2116" /></g><g
           id="g2118"
           transform="translate(51.2305,330.769)"><path
             d="M 0,0 H 67.077"
             style="fill:none;stroke:#000000;stroke-width:15;stroke-linecap:round;stroke-linejoin:round;stroke-miterlimit:10;stroke-dasharray:none;stroke-opacity:1"
             id="path2120" /></g><g
           id="g2122"
           transform="translate(51.2305,264)"><path
             d="M 0,0 H 42.154"
             style="fill:none;stroke:#000000;stroke-width:15;stroke-linecap:round;stroke-linejoin:round;stroke-miterlimit:10;stroke-dasharray:none;stroke-opacity:1"
             id="path2124" /></g><g
           id="g2126"
           transform="translate(412.7695,320.3076)"><path
             d="M 0,0 H 48"
             style="fill:none;stroke:#000000;stroke-width:15;stroke-linecap:round;stroke-linejoin:round;stroke-miterlimit:10;stroke-dasharray:none;stroke-opacity:1"
             id="path2128" /></g><g
           id="g2130"
           transform="translate(412.7695,287.6924)"><path
             d="M 0,0 H 48"
             style="fill:none;stroke:#000000;stroke-width:15;stroke-linecap:round;stroke-linejoin:round;stroke-miterlimit:10;stroke-dasharray:none;stroke-opacity:1"
             id="path2132" /></g><g
           id="g2134"
           transform="translate(412.7695,255.0771)"><path
             d="M 0,0 H 48"
             style="fill:none;stroke:#000000;stroke-width:15;stroke-linecap:round;stroke-linejoin:round;stroke-miterlimit:10;stroke-dasharray:none;stroke-opacity:1"
             id="path2136" /></g></g></g></g></svg>
