<?xml version="1.0" encoding="UTF-8"?> <svg xmlns="http://www.w3.org/2000/svg" id="OBJECTS" viewBox="0 0 89.19 32.22"><defs><style> .cls-1 { fill: #fff; } </style></defs><path class="cls-1" d="M27.65,15.12s2.09-1.85,2.07-5.33C29.72,4.07,23.38.24,15.6.37H6.56C3.26.3.22,2.26.03,5.25c0,0-.03,18.41-.03,21.61.37,2.75,2,4.69,5.68,5.03,3.61.01,14.74.03,15.95.01,5.57-.25,11.53-3.88,11.5-9.56-.08-4.08-2.79-6-5.47-7.22ZM12.79,9.07c.56,0,3.15,0,3.15,0,.87.08,1.75.54,1.75,1.37s-.96,1.23-1.69,1.43c-.56,0-3.22-.03-3.22-.03v-2.76ZM19.06,23.21c-.5,0-6.36-.01-6.36-.01v-2.97h6.34c.72.02,1.5.81,1.4,1.58.04.89-.8,1.32-1.38,1.41Z"></path><path class="cls-1" d="M51.32,32.21c7.04-.04,15.75-3.68,15.75-14.28V4.78C66.87,1.99,64.7-.06,61.83,0c-2.89,0-4.98,2.09-5.13,4.66,0,3.96-.04,12.51-.04,14.03-.37,6.5-10.61,6.6-11.14.08,0-5.62-.04-11.75-.04-14.24C45.17,1.44,42.61-.08,40.33,0c-3.06-.06-5.05,2.36-5.17,4.64,0,2.52.02,11.63.02,14.3.12,5.15,3.51,13.09,16.14,13.27Z"></path><path class="cls-1" d="M77.68,9.16s.03,13.89.03,18.33c.25,5.39,10.04,7.06,11.46.33,0-10.91.03-20.24.03-23.28-.22-2.93-3.01-4.1-4.68-4.1-5.06,0-7.85-.05-9.16-.05-5.31.77-6.26,7.44-.03,8.78h2.35Z"></path></svg> 