<?xml version="1.0" encoding="UTF-8"?> <svg xmlns="http://www.w3.org/2000/svg" id="Layer_1" data-name="Layer 1" viewBox="0 0 911.87 976.67"><defs><style> .cls-1 { fill: none; stroke: #17becf; stroke-linecap: round; stroke-linejoin: round; stroke-width: 60px; } </style></defs><path class="cls-1" d="M232.96,451.16L58.57,139.11c-20.05-35.88-30.08-53.82-28.39-68.51,1.47-12.82,8.28-24.42,18.75-31.96,12-8.64,32.55-8.64,73.65-8.64h102.43c15.28,0,22.91,0,29.77,2.21,6.06,1.95,11.65,5.15,16.41,9.38,5.38,4.78,9.26,11.36,17.01,24.53l167.73,284.72,167.73-284.72c7.75-13.16,11.63-19.74,17.01-24.53,4.76-4.23,10.35-7.43,16.41-9.38,6.85-2.21,14.49-2.21,29.76-2.21h102.43c41.1,0,61.65,0,73.65,8.64,10.47,7.54,17.27,19.14,18.75,31.96,1.69,14.69-8.34,32.63-28.39,68.51l-174.38,312.06M387.18,580l68.75-45.83v229.17M398.64,763.33h114.58M666.59,438.09c116.34,116.34,116.34,304.98,0,421.32-116.34,116.34-304.97,116.34-421.32,0-116.34-116.34-116.34-304.98,0-421.32,116.34-116.34,304.97-116.34,421.32,0Z"></path></svg> 