<?xml version="1.0" encoding="UTF-8"?> <svg xmlns="http://www.w3.org/2000/svg" id="Layer_1" data-name="Layer 1" viewBox="0 0 930.83 839.17"><defs><style> .cls-1 { fill: none; stroke: #17becf; stroke-linecap: round; stroke-linejoin: round; stroke-width: 60px; } </style></defs><path class="cls-1" d="M832.08,809.17v-320.83M465.42,809.17v-458.33M98.75,809.17v-183.33M529.89,122.93l236.88,88.83M410.36,140.04l-256.6,192.45M880.7,187.64c26.84,26.85,26.84,70.38,0,97.23-26.85,26.85-70.38,26.85-97.23,0-26.84-26.85-26.84-70.38,0-97.23,26.85-26.85,70.38-26.85,97.23,0ZM147.36,325.14c26.85,26.85,26.85,70.38,0,97.23-26.85,26.84-70.38,26.84-97.23,0-26.85-26.85-26.85-70.38,0-97.23,26.85-26.85,70.38-26.85,97.23,0ZM514.03,50.14c26.84,26.85,26.84,70.38,0,97.23-26.85,26.85-70.38,26.85-97.23,0-26.84-26.85-26.84-70.38,0-97.23,26.85-26.85,70.38-26.85,97.23,0Z"></path></svg> 