<?xml version="1.0" encoding="UTF-8"?> <svg xmlns="http://www.w3.org/2000/svg" id="Layer_1" data-name="Layer 1" viewBox="0 0 976.67 976.67"><defs><style> .cls-1 { fill: none; stroke: #17becf; stroke-linecap: round; stroke-linejoin: round; stroke-width: 60px; } </style></defs><path class="cls-1" d="M910,946.67c12.83,0,19.25,0,24.15-2.5,4.31-2.2,7.82-5.7,10.01-10.01,2.5-4.9,2.5-11.32,2.5-24.15v-476.67c0-12.83,0-19.25-2.5-24.15-2.2-4.31-5.7-7.82-10.01-10.01-4.9-2.5-11.32-2.5-24.15-2.5h-110c-12.83,0-19.25,0-24.15,2.5-4.31,2.2-7.82,5.7-10.01,10.01-2.5,4.9-2.5,11.32-2.5,24.15v110c0,12.83,0,19.25-2.5,24.15-2.2,4.31-5.7,7.82-10.01,10.01-4.9,2.5-11.32,2.5-24.15,2.5h-110c-12.83,0-19.25,0-24.15,2.5-4.31,2.2-7.82,5.7-10.01,10.01-2.5,4.9-2.5,11.32-2.5,24.15v110c0,12.83,0,19.25-2.5,24.15-2.2,4.31-5.7,7.82-10.01,10.01-4.9,2.5-11.32,2.5-24.15,2.5h-110c-12.83,0-19.25,0-24.15,2.5-4.31,2.2-7.82,5.7-10.01,10.01-2.5,4.9-2.5,11.32-2.5,24.15v110c0,12.83,0,19.25,2.5,24.15,2.2,4.31,5.7,7.82,10.01,10.01,4.9,2.5,11.32,2.5,24.15,2.5h476.67Z"></path><path class="cls-1" d="M396.67,250c0-12.83,0-19.25,2.5-24.15,2.2-4.31,5.7-7.82,10.01-10.01,4.9-2.5,11.32-2.5,24.15-2.5h110c12.83,0,19.25,0,24.15,2.5,4.31,2.2,7.82,5.7,10.01,10.01,2.5,4.9,2.5,11.32,2.5,24.15v110c0,12.83,0,19.25-2.5,24.15-2.2,4.31-5.7,7.82-10.01,10.01-4.9,2.5-11.32,2.5-24.15,2.5h-110c-12.83,0-19.25,0-24.15-2.5-4.31-2.2-7.82-5.7-10.01-10.01-2.5-4.9-2.5-11.32-2.5-24.15v-110Z"></path><path class="cls-1" d="M75.83,525c0-12.83,0-19.25,2.5-24.15,2.2-4.31,5.7-7.82,10.01-10.01,4.9-2.5,11.32-2.5,24.15-2.5h110c12.83,0,19.25,0,24.15,2.5,4.31,2.2,7.82,5.7,10.01,10.01,2.5,4.9,2.5,11.32,2.5,24.15v110c0,12.83,0,19.25-2.5,24.15-2.2,4.31-5.7,7.82-10.01,10.01-4.9,2.5-11.32,2.5-24.15,2.5h-110c-12.83,0-19.25,0-24.15-2.5-4.31-2.2-7.82-5.7-10.01-10.01-2.5-4.9-2.5-11.32-2.5-24.15v-110Z"></path><path class="cls-1" d="M30,66.67c0-12.83,0-19.25,2.5-24.15,2.2-4.31,5.7-7.82,10.01-10.01,4.9-2.5,11.32-2.5,24.15-2.5h110c12.83,0,19.25,0,24.15,2.5,4.31,2.2,7.82,5.7,10.01,10.01,2.5,4.9,2.5,11.32,2.5,24.15v110c0,12.83,0,19.25-2.5,24.15-2.2,4.31-5.7,7.82-10.01,10.01-4.9,2.5-11.32,2.5-24.15,2.5h-110c-12.83,0-19.25,0-24.15-2.5-4.31-2.2-7.82-5.7-10.01-10.01-2.5-4.9-2.5-11.32-2.5-24.15v-110Z"></path></svg> 