<?xml version="1.0" encoding="UTF-8"?> <svg xmlns="http://www.w3.org/2000/svg" id="Layer_1" version="1.1" viewBox="0 0 128 52"><defs><style> .st0 { fill: #fff; } </style></defs><path class="st0" d="M7,49.5c-.6-.9-1.4-2.1-2.3-3.7-1.7-3.1-3.7-7.4-4.4-12.5C-.4,28.2,0,22.4,3.2,16.6,6.4,10.9,12.1,5.4,21.4.7l1.1-.6c.9-.5,2.1.2,2.1,1.2v2c.1,1.6-.8,3.1-2.3,3.9-4.2,2.1-7,4.1-9.1,6-2,1.9-3.4,3.9-4.6,6.2-2.5,4.5-2.9,8.9-2.3,13,.6,4.1,2.2,7.8,3.7,10.5.4.8.9,1.5,1.2,2.1,1.4-.9,3.3-2.3,5.1-4,2.9-2.7,5.6-6.3,6.7-10.8-1.9.6-4.2,1.2-6.6,1.7l-1.2.2c-1.1.2-2-.7-1.8-1.8l.8-2.9c.2-.8.8-1.3,1.6-1.5,2.4-.6,4.7-1.2,6.5-1.8,1-.3,1.8-.6,2.3-.8.3,0,.5-.2.6-.2,0,0,.1,0,.2,0h0s0,0,0,0l1.3-.5c1.4-.5,2.9.5,2.9,1.9v1.3c0,8.7-4.8,15.2-9.2,19.4-2.2,2.1-4.4,3.7-6.1,4.8-1.2.8-2.2,1.3-2.6,1.5-.7.3-1.4.5-2.1.4-.8-.1-1.4-.5-1.9-1.1h0c-.1-.1-.5-.6-1-1.4Z"></path><path class="st0" d="M99.8,17.1c.9-2.4,3.8-3,5.2-3s2.5,1.4,2,3.9c-.5,2.5-3.6,3.8-4.9,3.5-1.4-.3-3.1-2-2.2-4.4Z"></path><path class="st0" d="M100.2,42.4c0,.7.5,1.3,1.1,1.4.5,0,1,.1,1.6.1,1.2,0,2.1-.2,2.6-.6.5-.4.8-1.2.8-2.3v-15.6c0-.7-.5-1.3-1.1-1.4-.5,0-1-.1-1.6-.1-1.2,0-2.1.2-2.6.6-.5.4-.8,1.2-.8,2.3v15.6Z"></path><path class="st0" d="M89.5,33.6l5,4.8c1.3,1.2,2.2,3.3,1,4.6-.5.6-1.3.9-2.4.9s-1.5-.2-2.1-.6c-.6-.4-1.3-1-2-1.8l-4.9-5.6v6.5c0,.7-.5,1.3-1.1,1.4-.5,0-1,.1-1.6.1-1.2,0-2.1-.2-2.7-.6-.5-.4-.8-1.2-.8-2.3v-22.3c0-.7.5-1.3,1.2-1.5.5,0,1-.1,1.6-.1,1.2,0,2.1.2,2.6.6.5.4.8,1.2.8,2.3v11.3l5.7-5.6c1.1-1.1,2.7-1.9,4.2-1.3.2.1.5.2.7.4.8.6,1.1,1.3,1.1,2.1s-.3,1.4-.8,1.9c-.5.5-1.3,1.3-2.3,2.2l-3.2,2.7Z"></path><path class="st0" d="M67.9,30.8c0-1-.3-1.7-.8-2.2-.6-.5-1.3-.7-2.3-.7s-1.2,0-1.8.2c-.5.2-1,.4-1.5.6v13.5c0,.7-.5,1.3-1.1,1.4-.5,0-1,.1-1.6.1-1.2,0-2.1-.2-2.6-.6-.5-.4-.8-1.2-.8-2.4v-12.8c0-.7.1-1.3.4-1.7.3-.4.7-.9,1.3-1.2.9-.6,2-1.1,3.3-1.5,1.4-.4,2.9-.6,4.5-.6,2.9,0,5.2.7,6.8,2,1.6,1.3,2.4,3.2,2.4,5.7v11.6c0,.7-.5,1.3-1.2,1.4-.5,0-1,.1-1.6.1-1.2,0-2.1-.2-2.6-.6-.5-.4-.8-1.2-.8-2.4v-10Z"></path><path class="st0" d="M39.1,36c.4,1.1,1,2,2,2.4,1,.5,2.1.7,3.3.7s2.2-.1,3.2-.4c.4-.1.8-.3,1.1-.4.8-.3,1.9-.4,2.3.4.3.4.4.9.4,1.4s-.2,1.2-.6,1.6c-.4.5-.9.9-1.6,1.2-.7.3-1.4.5-2.4.7-.9.2-1.9.2-3,.2-1.6,0-3.1-.2-4.4-.7-1.4-.5-2.5-1.1-3.5-2-1-.9-1.8-2-2.3-3.3-.5-1.3-.8-2.9-.8-4.7s.3-3.2.8-4.5c.6-1.3,1.3-2.3,2.2-3.2,1-.8,2-1.5,3.2-1.8,1.2-.4,2.5-.6,3.8-.6s2.7.2,3.8.7c1.2.4,2.2,1,3,1.8.8.8,1.5,1.7,2,2.7.5,1.1.7,2.2.7,3.5s-.2,1.5-.7,2c-.5.4-1.1.7-2,.9l-10.6,1.6ZM43,27.6c-1.2,0-2.1.4-2.9,1.1-.8.7-1.2,1.7-1.3,3.1l7.8-1.3c0-.7-.4-1.4-.9-2-.6-.6-1.4-.9-2.6-.9Z"></path><path class="st0" d="M119,39.3c.6,0,1.2,0,1.8-.2.6-.1,1.1-.3,1.3-.4v-3.9l-3.4.3c-.9,0-1.6.2-2.2.6-.5.3-.8.8-.8,1.5s.3,1.2.8,1.6c.5.4,1.3.6,2.5.6ZM118.8,23c2.8,0,5,.6,6.7,1.8,1.7,1.2,2.5,3,2.5,5.5v9.2c0,.7-.2,1.2-.5,1.7-.3.4-.8.8-1.3,1.1-.8.5-1.8.9-3,1.1-1.2.3-2.5.4-4.1.4-2.7,0-4.9-.5-6.6-1.6-1.6-1.1-2.4-2.7-2.4-4.8s.6-3.3,1.7-4.2c1.1-1,2.8-1.6,5-1.8l5.4-.6v-.5c0-.9-.4-1.6-1.1-2-.7-.4-1.7-.6-3-.6s-2,.1-3,.4c-.5.1-1,.3-1.4.4-.8.3-1.7.2-2.1-.5-.2-.5-.3-.9-.3-1.4,0-1.1.6-2,1.9-2.5.8-.3,1.7-.6,2.7-.7,1-.2,2.1-.2,3-.2Z"></path></svg> 