<?xml version="1.0" encoding="UTF-8"?> <svg xmlns="http://www.w3.org/2000/svg" id="Layer_1" data-name="Layer 1" viewBox="0 0 176.09 95.13"><defs><style> .cls-1 { fill: #fff; } </style></defs><g><path class="cls-1" d="M161.99,67.71c8.05-.03,14.06,5.76,14.1,13.58.04,7.72-6.06,13.77-13.95,13.83-8,.07-14.12-5.8-14.16-13.56-.04-7.95,5.9-13.82,14.02-13.85ZM161.98,79.07c-1.46.04-2.36.95-2.34,2.38.03,1.54.98,2.4,2.56,2.33,1.6-.07,2.23-1.03,2.24-2.48.01-1.42-.96-2.27-2.47-2.23Z"></path><path class="cls-1" d="M70.1,67.67c8.05-.02,14.03,5.77,14.06,13.6.02,7.75-6.04,13.75-13.95,13.81-8.08.06-14.12-5.83-14.12-13.76,0-7.85,5.94-13.64,14.01-13.65ZM70.09,83.75c1.57,0,2.46-.89,2.44-2.46-.02-1.45-.91-2.28-2.43-2.25-1.49.02-2.39.91-2.34,2.36.05,1.48.75,2.36,2.33,2.36Z"></path><path class="cls-1" d="M100.09,67.67c8.04-.04,14.04,5.74,14.09,13.58.05,7.74-6,13.75-13.93,13.83-8.02.08-14.23-5.91-14.24-13.73-.01-7.75,6.05-13.64,14.08-13.67ZM102.57,81.3c-.02-1.46-.9-2.27-2.45-2.26-1.43.02-2.46,1.01-2.44,2.34.02,1.39,1,2.36,2.41,2.37,1.54.01,2.5-.93,2.48-2.45Z"></path><path class="cls-1" d="M30.42,68.41c.69-.04,1.34-.11,1.98-.1,4.43.04,8.87,0,13.3.19,3.79.15,6.8,1.87,7.8,5.63,1.02,3.83.95,7.68-2.63,10.68,2.05,2.97,4.11,5.97,6.43,9.35-4.21,0-7.94.03-11.67-.05-.39,0-.86-.59-1.13-1.01-.77-1.22-1.41-2.53-2.21-3.72-.32-.49-.94-.78-1.42-1.17-.17.1-.34.2-.51.3v5.57h-9.94v-25.67ZM40.64,79.66c1.49.27,2.31-.37,2.37-1.74.07-1.48-.79-2.14-2.37-2.06v3.8Z"></path><path class="cls-1" d="M145.57,94.21c-3.44,0-6.58.04-9.72-.06-.34-.01-.91-.85-.93-1.33-.1-2.14-.04-4.3-.04-6.92-1.78,1.37-3.13,2.42-4.55,3.52-1.22-1.08-2.34-2.08-3.95-3.52,0,2.5-.05,4.52.02,6.52.05,1.39-.46,1.89-1.91,1.82-2.54-.12-5.09-.03-8.08-.03.29-8.74.58-17.37.88-26.4.79.49,1.32.8,1.83,1.14,3.4,2.32,6.82,4.61,10.16,7.01,1.06.76,1.77.71,2.81-.03,3.4-2.42,6.88-4.73,10.33-7.07.53-.36,1.08-.68,1.95-1.22.41,9,.81,17.68,1.22,26.57Z"></path><path class="cls-1" d="M26.64,75.9c-3.24,1.4-6.43,2.81-9.65,4.13-.32.13-.9-.11-1.23-.35-1.21-.89-2.44-.96-3.42.14-.84.94-.86,2.19.12,3.1,1.08,1.01,2.27.92,3.4-.1.12-.11.26-.21.41-.3.19-.11.4-.21.61-.26.12-.03.25-.05.36-.05.16,0,.32,0,.49,0,2.99-.04,6-.02,9.14-.02v12.76c-1.47-.8-2.69-1.56-3.99-2.11-.55-.23-1.45-.26-1.92.04-5.15,3.25-10.34,2.88-15.21-.27-4.88-3.15-6.34-8.06-5.52-13.59,1.06-7.11,6.77-11.51,14.31-11.33,5.46.13,9.56,2.32,11.88,7.38.09.21.12.44.23.86Z"></path></g><g><path class="cls-1" d="M106.73,16.96c-.6-1.01-1.86-1-3.44-1.01-1.34,0-6.61-1.99-7.32-2.43-.15-.07-.3-.15-.49-.21-1.7-.51-4.42,1.09-6,4.15-.64-.27-1.3-.49-1.95-.67-1.38-.37-2.74-.54-3.87-.54-.52,0-1.07.03-1.67.1h-.01c-.22.03-.42.06-.64.1h-.01c-1.13.18-2.34.51-3.5,1-.98-1.95-2.44-3.29-3.81-3.89-.79-.36-1.56-.45-2.19-.27-.18.06-.34.13-.49.21-.71.43-1.59,2.38-1.99,2.92-.34.45-.7.83-1.1,1.19-.51.43-1.06.79-1.68,1.09.3-.28.57-.57.8-.88.54-.71.94-1.5,1.19-2.4.01-.01.01-.03.01-.03-1.58.54-3.22.54-4.54.54-1.59.01-2.84,0-3.45,1.01-.43.71-.21,1.52.03,2.07.09.21.18.37.24.49.77,1.44,1.34,3.25,1.91,4.99.95,3.05,1.8,5.69,3.75,6.18.21.04.4.07.61.07-.03,1.99.46,3.72.92,5.33.49,1.73.94,3.26.67,4.91-.04.3-.1.6-.21.89-.86,2.8-1.21,5.24-1.04,7.35.13,1.79.64,3.33,1.5,4.66.09.15.19.28.3.42.1.15.22.3.34.45.28.31.63.67,1.06,1.01.57.46,1.27.94,2.13,1.38,2.29,1.19,5.75,2.17,10.88,2.23,4.9.06,8.31-.82,10.67-2.05.94-.48,1.7-1.01,2.34-1.56.45-.39.83-.79,1.16-1.19.94-1.15,1.41-2.28,1.65-3.08,0-.01-.01-.01-.01-.03.19-.7.33-1.44.39-2.25.16-2.1-.18-4.54-1.04-7.34-.09-.3-.16-.6-.21-.89-.27-1.65.18-3.19.67-4.91.46-1.61.97-3.33.92-5.33.21,0,.42-.03.61-.07,1.97-.49,2.8-3.13,3.77-6.18.55-1.74,1.12-3.54,1.89-4.99.06-.12.16-.28.24-.49.24-.55.46-1.35.03-2.07ZM94,31.33c-.13.04-.25.06-.39.06-.46,0-.89-.28-1.06-.74-.24-.64-.74-1.15-1.38-1.37-.66-.24-1.35-.16-1.94.19-.54.33-1.24.15-1.56-.39-.31-.54-.15-1.22.39-1.55,1.18-.7,2.58-.85,3.86-.39,1.3.45,2.29,1.44,2.75,2.74.22.58-.09,1.22-.67,1.44ZM82.52,52.53c-3.33-.27-5.88-1.71-5.88-3.45,0-1.94,3.14-3.5,7.01-3.5s7.01,1.56,7.01,3.5c0,1.74-2.55,3.19-5.9,3.45,0,0-.86.04-1.07.04-.22,0-1.18-.04-1.18-.04ZM74.34,31.74c-.6-.21-.89-.85-.68-1.44.46-1.28,1.47-2.28,2.75-2.74,1.28-.45,2.69-.31,3.86.4.54.31.71,1.01.39,1.55-.33.54-1.01.7-1.55.39-.6-.36-1.3-.43-1.94-.21-.66.24-1.16.73-1.38,1.38-.16.46-.61.74-1.07.74-.12,0-.25-.03-.37-.07ZM81.29,37.61c0,1.74-1.01,3.16-2.25,3.16s-2.25-1.41-2.25-3.16,1.01-3.14,2.25-3.14,2.25,1.4,2.25,3.14ZM87.03,37.19c0-1.74,1.01-3.16,2.25-3.16s2.25,1.41,2.25,3.16-1,3.16-2.25,3.16-2.25-1.41-2.25-3.16ZM68.48,27.77c-.13.13-.25.24-.37.33l-.63.52v.03h-.39s-.04,0-.18-.03c-.74-.18-1.61-2.93-2.17-4.73l-.1-.31c-.55-1.73-1.13-3.51-1.95-5.05-.06-.12-.12-.21-.16-.33-.01-.03-.01-.06-.03-.07.36-.06.95-.06,1.41-.06.54,0,1.13,0,1.76-.03l-1.16,1.41s.01,0,.03.03c1.33,1.13,3.29,1.14,4.68.07.13-.1.26-.2.38-.31.52-.48.97-.95,1.38-1.49l.06.34c.18,1.01.36,2.32.25,3.75-.18,2.31-1.1,4.24-2.81,5.92ZM104.64,18.43l-.07.15c-.83,1.55-1.43,3.42-1.99,5.24-.63,1.98-1.46,4.61-2.28,4.82h-.46v-.07l-.71-.54c-.07-.04-.15-.12-.21-.19-1.82-1.77-2.74-3.71-2.92-6-.1-1.44.09-2.81.25-3.72l.18-1.12c.06-.31.1-.63.13-.92,2.07.83,5.34,1.98,6.73,1.98.54,0,1.13,0,1.5.06-.01.01-.15.31-.15.31Z"></path><path class="cls-1" d="M61.13,27.31c0-1.55-1.25-2.8-2.8-2.8s-2.8,1.25-2.8,2.8,1.25,2.8,2.8,2.8,2.8-1.25,2.8-2.8ZM57.81,27.31c0-.3.24-.54.52-.54.3,0,.54.24.54.54s-.24.54-.54.54-.52-.25-.52-.54Z"></path><path class="cls-1" d="M63.37,33.91s-.04-.02-.05-.05l-1.25-3.37s-.06-.03-.07,0l-1.25,3.37s-.02.04-.05.05l-3.37,1.25s-.03.06,0,.07l3.37,1.25s.04.02.05.05l1.25,3.37s.06.03.07,0l1.25-3.37s.02-.04.05-.05l3.37-1.25s.03-.06,0-.07l-3.37-1.25Z"></path><path class="cls-1" d="M92.7,8.4s.04.02.05.05l.94,2.53s.06.03.07,0l.94-2.53s.02-.04.05-.05l2.53-.94s.03-.06,0-.07l-2.53-.94s-.04-.02-.05-.05l-.94-2.53s-.06-.03-.07,0l-.94,2.53s-.02.04-.05.05l-2.53.94s-.03.06,0,.07l2.53.94Z"></path><path class="cls-1" d="M74.98,11.81c.92,1.16,2.28,1.77,3.66,1.77.99,0,2.01-.33,2.86-.99.01.01.02.03.03.04.03.09.09.16.15.24.71.91,1.79,1.38,2.86,1.38.79,0,1.58-.25,2.25-.79.3-.24.55-.51.74-.8.88-1.27.86-3.01-.15-4.29-.71-.91-1.77-1.38-2.84-1.38-.51,0-1.04.12-1.53.36,0-.02-.01-.04-.02-.06-.16-.43-.4-.86-.7-1.25-.92-1.16-2.28-1.77-3.66-1.77-1,0-2.01.33-2.87,1-1.3,1.03-1.89,2.59-1.74,4.11.07.86.4,1.7.97,2.43ZM83.83,9.75c.25-.19.52-.24.7-.24.34,0,.67.15.88.42.18.24.27.54.24.83-.04.3-.19.57-.43.74-.25.21-.51.24-.68.24-.34,0-.67-.15-.88-.42-.19-.24-.27-.54-.24-.83s.18-.57.42-.74ZM76.26,8.65c.07-.64.4-1.21.89-1.59.43-.34.94-.52,1.47-.52.74,0,1.43.34,1.89.92.39.49.57,1.12.49,1.76-.07.63-.4,1.19-.89,1.59-.43.33-.94.51-1.47.51-.74,0-1.43-.33-1.88-.91-.4-.51-.58-1.13-.51-1.76Z"></path><path class="cls-1" d="M87,5.58c1.53,0,2.78-1.25,2.78-2.78s-1.25-2.8-2.78-2.8-2.8,1.25-2.8,2.8,1.25,2.78,2.8,2.78ZM87,2.26c.28,0,.52.24.52.54s-.24.52-.52.52c-.3,0-.54-.24-.54-.52,0-.3.24-.54.54-.54Z"></path></g></svg> 