<?xml version="1.0" encoding="UTF-8"?> <svg xmlns="http://www.w3.org/2000/svg" id="Layer_1" data-name="Layer 1" viewBox="0 0 973.64 976.67"><defs><style> .cls-1 { fill: none; stroke: #17becf; stroke-linecap: round; stroke-linejoin: round; stroke-width: 60px; } </style></defs><path class="cls-1" d="M167.51,580h602.06c46.42,0,69.63,0,88.11-8.65,16.28-7.63,29.96-19.87,39.33-35.2,10.64-17.41,13.2-40.48,18.33-86.62l26.81-241.31c1.57-14.09,2.35-21.14.08-26.59-1.99-4.79-5.55-8.76-10.09-11.27-5.17-2.85-12.26-2.85-26.44-2.85H144.59M30,30h57.22c12.13,0,18.19,0,22.94,2.31,4.18,2.03,7.64,5.28,9.93,9.32,2.6,4.59,2.98,10.64,3.73,22.75l41.54,664.57c.76,12.1,1.13,18.16,3.73,22.75,2.29,4.04,5.75,7.3,9.93,9.33,4.74,2.31,10.81,2.31,22.94,2.31h607.22M282.08,923.75h.46M694.58,923.75h.46M305,923.75c0,12.65-10.26,22.92-22.92,22.92s-22.92-10.26-22.92-22.92,10.26-22.92,22.92-22.92,22.92,10.26,22.92,22.92ZM717.5,923.75c0,12.65-10.26,22.92-22.92,22.92s-22.92-10.26-22.92-22.92,10.26-22.92,22.92-22.92,22.92,10.26,22.92,22.92Z"></path></svg> 