<?xml version="1.0" encoding="UTF-8"?> <svg xmlns="http://www.w3.org/2000/svg" id="Layer_1" data-name="Layer 1" viewBox="0 0 885 885"><defs><style> .cls-1 { fill: none; stroke: #17becf; stroke-linecap: round; stroke-linejoin: round; stroke-width: 60px; } </style></defs><path class="cls-1" d="M717.5,580l137.5,137.5M855,717.5l-137.5,137.5M855,717.5h-111.43c-43.05,0-64.57,0-84.11-5.94-17.3-5.25-33.39-13.86-47.35-25.34-15.78-12.96-27.72-30.87-51.59-66.69l-11.08-16.62M717.5,30l137.5,137.5M855,167.5l-137.5,137.5M855,167.5h-111.43c-43.05,0-64.57,0-84.11,5.93-17.3,5.25-33.39,13.86-47.35,25.34-15.78,12.96-27.72,30.87-51.59,66.69l-236.04,354.07c-23.88,35.81-35.82,53.73-51.59,66.69-13.96,11.48-30.06,20.09-47.35,25.34-19.54,5.94-41.06,5.94-84.11,5.94H30M30,167.5h111.43c43.05,0,64.57,0,84.11,5.93,17.3,5.25,33.39,13.86,47.35,25.34,15.77,12.96,27.71,30.87,51.59,66.69l11.08,16.62"></path></svg> 