<?xml version="1.0" encoding="UTF-8"?> <svg xmlns="http://www.w3.org/2000/svg" id="Layer_1" data-name="Layer 1" viewBox="0 0 976.67 936.39"><defs><style> .cls-1 { fill: none; stroke: #17becf; stroke-linecap: round; stroke-linejoin: round; stroke-width: 60px; } </style></defs><path class="cls-1" d="M213.33,213.33l206.25,206.25M213.33,213.33H75.83L30,75.83l45.83-45.83,137.5,45.83v137.5ZM821.04,63.96l-120.43,120.43c-18.15,18.15-27.23,27.23-30.63,37.69-2.99,9.21-2.99,19.12,0,28.33,3.4,10.47,12.48,19.54,30.63,37.69l10.87,10.87c18.15,18.15,27.23,27.23,37.69,30.63,9.2,2.99,19.12,2.99,28.33,0,10.46-3.4,19.54-12.48,37.69-30.63l112.65-112.65c12.13,29.52,18.82,61.86,18.82,95.76,0,139.22-112.86,252.08-252.08,252.08-16.78,0-33.19-1.64-49.05-4.77-22.28-4.39-33.43-6.59-40.18-5.92-7.18.72-10.72,1.79-17.08,5.2-5.99,3.2-11.99,9.2-23.99,21.21l-328.03,328.03c-37.97,37.97-99.53,37.97-137.5,0-37.97-37.97-37.97-99.53,0-137.5l328.03-328.03c12.01-12.01,18.01-18.01,21.21-23.99,3.41-6.36,4.48-9.9,5.2-17.08.67-6.75-1.53-17.89-5.92-40.18-3.13-15.87-4.77-32.27-4.77-49.05,0-139.22,112.86-252.08,252.08-252.08,46.09,0,89.28,12.37,126.45,33.96ZM488.34,625.83l252.08,252.08c37.97,37.97,99.53,37.97,137.5,0,37.97-37.97,37.97-99.53,0-137.5l-207.38-207.38c-14.68-1.39-28.99-4.04-42.83-7.84-17.83-4.9-37.4-1.34-50.47,11.73l-88.9,88.9Z"></path></svg> 