<?xml version="1.0" encoding="UTF-8"?> <svg xmlns="http://www.w3.org/2000/svg" id="Layer_1" data-name="Layer 1" viewBox="0 0 885 885"><defs><style> .cls-1 { fill: none; stroke: #17becf; stroke-linecap: round; stroke-linejoin: round; stroke-width: 60px; } </style></defs><path class="cls-1" d="M121.67,855v-275M121.67,580c50.63,0,91.67-41.04,91.67-91.67s-41.04-91.67-91.67-91.67-91.67,41.04-91.67,91.67,41.04,91.67,91.67,91.67ZM121.67,213.33V30M442.5,855v-275M442.5,213.33V30M442.5,213.33c-50.63,0-91.67,41.04-91.67,91.67s41.04,91.67,91.67,91.67,91.67-41.04,91.67-91.67-41.04-91.67-91.67-91.67ZM763.33,855v-183.33M763.33,671.67c50.63,0,91.67-41.04,91.67-91.67s-41.04-91.67-91.67-91.67-91.67,41.04-91.67,91.67,41.04,91.67,91.67,91.67ZM763.33,305V30"></path></svg> 