<?xml version="1.0" encoding="UTF-8"?> <svg xmlns="http://www.w3.org/2000/svg" id="Layer_1" data-name="Layer 1" viewBox="0 0 839.17 877.83"><defs><style> .cls-1 { fill: none; stroke: #17becf; stroke-linecap: round; stroke-linejoin: round; stroke-width: 60px; } </style></defs><path class="cls-1" d="M158.65,741.81c.81-1.37,1.64-2.73,2.49-4.08,62.08-98.69,98.02-215.39,98.02-341.06,0-101.25,82.08-183.33,183.33-183.33s183.33,82.08,183.33,183.33c0,46.61-3.17,92.52-9.32,137.5M519.46,847.83c28.04-55.96,51.02-114.89,68.36-176.16M763.78,723.55c29.56-103.87,45.39-213.53,45.39-326.88,0-202.5-164.16-366.67-366.67-366.67-66.78,0-129.4,17.86-183.33,49.05M30,596.69c29.36-60.44,45.83-128.31,45.83-200.02,0-66.79,17.86-129.4,49.05-183.33M442.5,396.67c0,161.21-46.24,311.61-126.17,438.68"></path></svg> 