<?xml version="1.0" encoding="UTF-8"?> <svg xmlns="http://www.w3.org/2000/svg" id="Layer_1" data-name="Layer 1" viewBox="0 0 701.67 976.67"><defs><style> .cls-1 { fill: none; stroke: #17becf; stroke-linecap: round; stroke-linejoin: round; stroke-width: 60px; } </style></defs><path class="cls-1" d="M350.83,740.42h.46M176.67,946.67h348.33c51.34,0,77.01,0,96.62-9.99,17.25-8.79,31.27-22.81,40.06-40.06,9.99-19.61,9.99-45.28,9.99-96.62V176.67c0-51.34,0-77.01-9.99-96.62-8.79-17.25-22.81-31.27-40.06-40.06-19.61-9.99-45.28-9.99-96.62-9.99H176.67c-51.34,0-77.01,0-96.62,9.99-17.25,8.79-31.27,22.81-40.06,40.06-9.99,19.61-9.99,45.28-9.99,96.62v623.33c0,51.34,0,77.01,9.99,96.62,8.79,17.25,22.81,31.27,40.06,40.06,19.61,9.99,45.28,9.99,96.62,9.99ZM373.75,740.42c0,12.65-10.26,22.92-22.92,22.92s-22.92-10.26-22.92-22.92,10.26-22.92,22.92-22.92,22.92,10.26,22.92,22.92Z"></path></svg> 