<?xml version="1.0" encoding="UTF-8"?> <svg xmlns="http://www.w3.org/2000/svg" id="Layer_1" data-name="Layer 1" viewBox="0 0 976.67 793.33"><defs><style> .cls-1 { fill: none; stroke: #17becf; stroke-linecap: round; stroke-linejoin: round; stroke-width: 60px; } </style></defs><path class="cls-1" d="M213.33,350.83v183.33M763.33,259.17v183.33M717.5,30c112.23,0,172.93,17.18,203.14,30.5,4.02,1.77,6.04,2.66,11.84,8.2,3.48,3.32,9.83,13.06,11.46,17.59,2.73,7.55,2.73,11.67,2.73,19.92v492.63c0,41.65,0,62.48-6.25,73.19-6.35,10.89-12.48,15.95-24.37,20.13-11.69,4.11-35.29-.42-82.49-9.49-33.04-6.34-72.22-11-116.06-11-137.5,0-275,91.67-458.33,91.67-112.23,0-172.94-17.18-203.14-30.5-4.02-1.78-6.03-2.66-11.84-8.2-3.48-3.32-9.83-13.06-11.46-17.59-2.73-7.54-2.73-11.67-2.73-19.92V194.49c0-41.65,0-62.48,6.25-73.18,6.35-10.89,12.48-15.95,24.37-20.14,11.69-4.11,35.29.42,82.49,9.49,33.04,6.35,72.22,11.01,116.06,11.01,137.5,0,275-91.67,458.33-91.67ZM602.92,396.67c0,63.28-51.3,114.58-114.58,114.58s-114.58-51.3-114.58-114.58,51.3-114.58,114.58-114.58,114.58,51.3,114.58,114.58Z"></path></svg> 