<?xml version="1.0" encoding="UTF-8"?> <svg xmlns="http://www.w3.org/2000/svg" id="Layer_1" data-name="Layer 1" viewBox="0 0 976.67 976.67"><defs><style> .cls-1 { fill: none; stroke: #17becf; stroke-linecap: round; stroke-linejoin: round; stroke-width: 60px; } </style></defs><path class="cls-1" d="M350.83,30v91.67M625.83,30v91.67M350.83,855v91.67M625.83,855v91.67M855,350.83h91.67M855,580h91.67M30,350.83h91.67M30,580h91.67M341.67,855h293.33c77.01,0,115.51,0,144.92-14.99,25.87-13.18,46.91-34.21,60.09-60.09,14.99-29.42,14.99-67.92,14.99-144.92v-293.33c0-77.01,0-115.51-14.99-144.92-13.18-25.87-34.21-46.91-60.09-60.09-29.42-14.99-67.92-14.99-144.92-14.99h-293.33c-77.01,0-115.51,0-144.92,14.99-25.87,13.18-46.91,34.22-60.09,60.09-14.99,29.41-14.99,67.92-14.99,144.92v293.33c0,77.01,0,115.51,14.99,144.92,13.18,25.87,34.22,46.91,60.09,60.09,29.41,14.99,67.92,14.99,144.92,14.99ZM424.17,625.83h128.33c25.67,0,38.5,0,48.31-5,8.63-4.4,15.63-11.4,20.03-20.03,5-9.8,5-22.64,5-48.31v-128.33c0-25.67,0-38.5-5-48.31-4.4-8.62-11.4-15.64-20.03-20.03-9.8-5-22.64-5-48.31-5h-128.33c-25.67,0-38.5,0-48.31,5-8.62,4.39-15.64,11.41-20.03,20.03-5,9.8-5,22.64-5,48.31v128.33c0,25.67,0,38.5,5,48.31,4.39,8.63,11.41,15.63,20.03,20.03,9.8,5,22.64,5,48.31,5Z"></path></svg> 