<?xml version="1.0" encoding="UTF-8"?> <svg xmlns="http://www.w3.org/2000/svg" id="Layer_1" data-name="Layer 1" viewBox="0 0 976.67 976.67"><defs><style> .cls-1 { fill: none; stroke: #17becf; stroke-linecap: round; stroke-linejoin: round; stroke-width: 60px; } </style></defs><path class="cls-1" d="M282.08,144.58c0-63.28,51.3-114.58,114.58-114.58s114.58,51.3,114.58,114.58v68.75h45.83c64.07,0,96.1,0,121.37,10.47,33.69,13.96,60.46,40.72,74.41,74.41,10.47,25.27,10.47,57.3,10.47,121.37h68.75c63.28,0,114.58,51.3,114.58,114.58s-51.3,114.58-114.58,114.58h-68.75v77.92c0,77.01,0,115.51-14.99,144.92-13.18,25.87-34.21,46.91-60.09,60.09-29.42,14.99-67.92,14.99-144.92,14.99h-32.08v-80.21c0-56.95-46.17-103.12-103.12-103.12s-103.12,46.17-103.12,103.12v80.21h-55c-77.01,0-115.51,0-144.92-14.99-25.87-13.18-46.91-34.21-60.09-60.09-14.99-29.42-14.99-67.92-14.99-144.92v-77.92h68.75c63.28,0,114.58-51.3,114.58-114.58s-51.3-114.58-114.58-114.58H30c0-64.07,0-96.1,10.47-121.37,13.96-33.69,40.72-60.46,74.41-74.41,25.27-10.47,57.3-10.47,121.37-10.47h45.83v-68.75Z"></path></svg> 