<?xml version="1.0" encoding="UTF-8"?> <svg xmlns="http://www.w3.org/2000/svg" id="Layer_1" data-name="Layer 1" viewBox="0 0 952.45 952.45"><defs><style> .cls-1 { fill: none; stroke: #17becf; stroke-linecap: round; stroke-linejoin: round; stroke-width: 60px; } </style></defs><path class="cls-1" d="M524.7,431.37L89.29,866.79M571.39,89.39c55.83,37.04,109.48,80.71,159.62,130.86,50.57,50.57,94.56,104.73,131.81,161.07M353.06,289.11l-131.76-43.92c-15.17-5.06-31.89-1.84-44.1,8.49l-130.95,110.81c-26.81,22.69-19.19,65.86,13.76,78l124.08,45.71M464.25,768.36l45.71,124.08c12.14,32.95,55.31,40.57,77.99,13.76l110.81-130.95c10.33-12.21,13.55-28.93,8.49-44.1l-43.92-131.76M815.68,31.28l-224.88,37.48c-24.29,4.05-46.56,15.98-63.37,33.96L224.33,426.73c-78.57,83.98-76.38,215.14,4.94,296.46,81.32,81.32,212.48,83.5,296.46,4.94l324-303.1c17.98-16.82,29.92-39.09,33.96-63.37l37.48-224.88c10.34-62.04-43.45-115.83-105.49-105.49Z"></path></svg> 