<?xml version="1.0" encoding="UTF-8"?> <svg xmlns="http://www.w3.org/2000/svg" id="Layer_1" data-name="Layer 1" viewBox="0 0 825 998.87"><defs><style> .cls-1 { fill: none; stroke: #17becf; stroke-linecap: round; stroke-linejoin: round; stroke-width: 60px; } </style></defs><path class="cls-1" d="M284.76,615.63c14.31,27.25,42.88,45.83,75.8,45.83h97.78c50.63,0,91.67-41.04,91.67-91.67s-41.04-91.67-91.67-91.67h-91.67c-50.63,0-91.67-41.04-91.67-91.67s41.04-91.67,91.67-91.67h97.78c32.91,0,61.49,18.59,75.79,45.83M412.5,226.05v68.75M412.5,661.47v68.75M779.17,501.05c0,224.97-245.39,388.59-334.67,440.68-10.15,5.92-15.22,8.88-22.38,10.41-5.56,1.19-13.66,1.19-19.22,0-7.16-1.54-12.23-4.49-22.38-10.41-89.29-52.09-334.67-215.71-334.67-440.68v-219.19c0-36.64,0-54.97,5.99-70.72,5.29-13.91,13.9-26.33,25.07-36.17,12.64-11.14,29.8-17.57,64.11-30.44l245.75-92.16c9.53-3.57,14.29-5.36,19.2-6.07,4.34-.63,8.76-.63,13.11,0,4.9.71,9.67,2.5,19.2,6.07l245.75,92.16c34.31,12.87,51.47,19.3,64.11,30.44,11.17,9.84,19.77,22.26,25.07,36.17,6,15.75,6,34.07,6,70.72v219.19Z"></path></svg> 