<?xml version="1.0" encoding="UTF-8"?> <svg xmlns="http://www.w3.org/2000/svg" id="Layer_1" data-name="Layer 1" viewBox="0 0 976.67 976.67"><defs><style> .cls-1 { fill: none; stroke: #17becf; stroke-linecap: round; stroke-linejoin: round; stroke-width: 60px; } </style></defs><path class="cls-1" d="M488.33,625.83c75.94,0,137.5-61.56,137.5-137.5s-61.56-137.5-137.5-137.5-137.5,61.56-137.5,137.5,61.56,137.5,137.5,137.5Z"></path><path class="cls-1" d="M796.67,613.33c-5.55,12.57-7.2,26.51-4.75,40.02,2.45,13.52,8.9,25.99,18.5,35.81l2.5,2.5c7.75,7.74,13.9,16.93,18.09,27.05,4.19,10.12,6.35,20.96,6.35,31.91s-2.16,21.8-6.35,31.91c-4.19,10.12-10.34,19.3-18.09,27.05-7.74,7.75-16.93,13.89-27.05,18.09-10.12,4.19-20.96,6.35-31.91,6.35s-21.8-2.16-31.91-6.35c-10.12-4.19-19.3-10.34-27.05-18.09l-2.5-2.5c-9.82-9.6-22.29-16.05-35.81-18.5-13.52-2.45-27.46-.8-40.03,4.75-12.32,5.28-22.83,14.05-30.24,25.23s-11.38,24.28-11.43,37.69v7.08c0,22.1-8.78,43.3-24.41,58.93-15.63,15.62-36.83,24.41-58.93,24.41s-43.29-8.78-58.92-24.41c-15.63-15.63-24.41-36.83-24.41-58.93v-3.75c-.32-13.79-4.79-27.17-12.81-38.39-8.03-11.22-19.24-19.77-32.19-24.53-12.57-5.55-26.51-7.2-40.02-4.75-13.52,2.45-25.99,8.9-35.81,18.5l-2.5,2.5c-7.74,7.75-16.93,13.9-27.05,18.09-10.12,4.19-20.96,6.35-31.91,6.35s-21.8-2.16-31.91-6.35c-10.12-4.19-19.31-10.34-27.05-18.09-7.75-7.74-13.89-16.93-18.09-27.05-4.19-10.12-6.35-20.96-6.35-31.91s2.16-21.8,6.35-31.91c4.19-10.12,10.34-19.3,18.09-27.05l2.5-2.5c9.61-9.82,16.05-22.29,18.5-35.81,2.45-13.52.8-27.46-4.75-40.03-5.28-12.32-14.05-22.83-25.23-30.24s-24.28-11.38-37.69-11.43h-7.08c-22.1,0-43.3-8.78-58.93-24.41-15.63-15.63-24.41-36.83-24.41-58.93s8.78-43.29,24.41-58.92c15.63-15.63,36.82-24.41,58.93-24.41h3.75c13.79-.32,27.17-4.79,38.39-12.81,11.22-8.03,19.77-19.24,24.53-32.19,5.55-12.57,7.2-26.51,4.75-40.02-2.45-13.52-8.89-25.99-18.5-35.81l-2.5-2.5c-7.75-7.74-13.89-16.93-18.09-27.05-4.19-10.12-6.35-20.96-6.35-31.91s2.16-21.8,6.35-31.91c4.19-10.12,10.34-19.31,18.09-27.05,7.74-7.75,16.93-13.89,27.05-18.09,10.12-4.19,20.96-6.35,31.91-6.35s21.8,2.16,31.91,6.35c10.12,4.19,19.31,10.34,27.05,18.09l2.5,2.5c9.82,9.61,22.29,16.05,35.81,18.5,13.52,2.45,27.46.8,40.02-4.75h3.33c12.32-5.28,22.83-14.05,30.24-25.23,7.4-11.18,11.38-24.28,11.43-37.69v-7.08c0-22.1,8.78-43.3,24.41-58.93,15.62-15.63,36.82-24.41,58.92-24.41s43.3,8.78,58.92,24.41c15.63,15.63,24.41,36.82,24.41,58.93v3.75c.05,13.41,4.02,26.51,11.43,37.69,7.4,11.18,17.91,19.95,30.24,25.23,12.57,5.55,26.51,7.2,40.02,4.75s25.99-8.89,35.81-18.5l2.5-2.5c7.74-7.75,16.93-13.89,27.05-18.09,10.12-4.19,20.96-6.35,31.91-6.35s21.8,2.16,31.91,6.35c10.12,4.19,19.3,10.34,27.05,18.09,7.75,7.74,13.89,16.93,18.09,27.05,4.19,10.12,6.35,20.96,6.35,31.91s-2.16,21.8-6.35,31.91c-4.19,10.12-10.34,19.31-18.09,27.05l-2.5,2.5c-9.6,9.82-16.05,22.29-18.5,35.81-2.45,13.52-.8,27.46,4.75,40.02v3.33c5.28,12.32,14.05,22.83,25.23,30.24,11.18,7.4,24.28,11.38,37.69,11.43h7.08c22.1,0,43.3,8.78,58.93,24.41,15.62,15.62,24.41,36.82,24.41,58.92s-8.78,43.3-24.41,58.92c-15.63,15.63-36.83,24.41-58.93,24.41h-3.75c-13.41.05-26.51,4.02-37.68,11.43-11.18,7.4-19.95,17.91-25.23,30.24Z"></path></svg> 