<?xml version="1.0" encoding="UTF-8"?> <svg xmlns="http://www.w3.org/2000/svg" id="Layer_1" data-name="Layer 1" viewBox="0 0 1155 1155"><defs><style> .cls-1 { fill: #17becf; } </style></defs><g id="f3BoJO"><g><path class="cls-1" d="M505.77,19.77c122.91-4.4,289.57,22.83,385.46,103.63,20.18,17,44.18,51.36,64.18,63.83,47.9,29.87,69.66,10.37,107.42,78.19,48.4,86.93,51.14,297.81,52.6,401.84,2.43,172.74-65.1,367.05-240.15,432.44-123.74,46.22-491.5,50.82-611.4-3.33-127.8-57.72-218.66-220.91-224.25-358.15-1.26-31.01,6.71-56.79,6.9-83.23.87-117.36-11.42-380.63,69.86-467.8C199.22,98.38,385.51,24.07,505.77,19.77ZM276.72,293.06c-69.26-30.92-165.18,170.12-140.8,198.43,171.82-52.77,285.48,111.89,457.91,102.71,151.9-8.09,272.04-157.19,431.71-102.72-4.56-42.99-48.09-64.75-73.04-96.51-19.21-24.45-32.49-53.09-48.46-79.55-38.94-7.68-79.21-.58-118.43-3.19-50.92-3.39-162.9-25.54-206.43-7.88-28.74,11.66-63.15,91.85-88.21,97.73-5.19,1.22-14.4,2.23-16.52-3.97l-21.67-72.95c-67.05,26.65-89.78,92.48-141,133.08-29.28-2.4-40.23-140.71-35.05-165.17ZM262.29,582.46c-111.59,18.47-95.88,204.94,41.75,176.39,102.17-21.19,71.86-195.2-41.75-176.39ZM851.21,582.51c-99.47,14.49-102.22,166.62-1.82,177.96,147.67,16.68,130.37-196.69,1.82-177.96ZM1006.3,843.55c-75.77,49.79-174.5,16.24-247.46-24.51-61.38-34.28-106.49-99.07-184.48-97.6-73.19,1.38-119.43,64.8-178.16,97.6-69.91,39.04-172.49,75.66-244.36,24.55-13.73-4.44,14.84,48.7,17.3,53.11,40.23,72.06,107,127.71,189.22,143.62,115.55,22.36,410.11,24.79,512.89-27.87,61.21-31.36,116.29-103.41,135.07-168.9Z"></path><path class="cls-1" d="M460.68,857.32c21.86-3.8,79.09,29.07,113.63,29.7,50.65.93,93.17-38.52,134.43-30.69,30.09,5.71,24.04,40.31,9.58,60.84-54.83,77.85-164.78,85.45-241.25,36.45-35.08-22.48-80.14-85.21-16.38-96.3Z"></path></g></g></svg> 