<?xml version="1.0" encoding="UTF-8"?> <svg xmlns="http://www.w3.org/2000/svg" id="Layer_1" data-name="Layer 1" viewBox="0 0 899.9 976.67"><defs><style> .cls-1 { fill: none; stroke: #17becf; stroke-linecap: round; stroke-linejoin: round; stroke-width: 60px; } </style></defs><path class="cls-1" d="M633.28,350.83v-137.5c0-101.25-82.08-183.33-183.33-183.33s-183.33,82.08-183.33,183.33v137.5M64.58,412.8l-27.5,293.33c-7.82,83.4-11.73,125.1,2.11,157.31,12.16,28.29,33.46,51.69,60.5,66.44,30.78,16.78,72.66,16.78,156.43,16.78h387.65c83.77,0,125.65,0,156.43-16.78,27.04-14.74,48.35-38.14,60.5-66.44,13.84-32.21,9.93-73.91,2.11-157.31l-27.5-293.33c-6.6-70.43-9.9-105.64-25.74-132.27-13.95-23.45-34.56-42.21-59.2-53.91-27.99-13.28-63.36-13.28-134.09-13.28h-332.65c-70.74,0-106.11,0-134.09,13.28-24.65,11.7-45.26,30.47-59.21,53.91-15.84,26.62-19.14,61.84-25.74,132.27Z"></path></svg> 