<svg id="Layer_1" enable-background="new 0 0 468 468" height="512" viewBox="0 0 468 468" width="512" xmlns="http://www.w3.org/2000/svg"><g><g><path d="m435.726 468h-403.452c-17.796 0-32.274-14.478-32.274-32.274v-58.982c0-6.627 5.373-12 12-12h150.868c4.896 0 9.3 2.974 11.13 7.514l9.127 22.647h101.535l9.127-22.646c1.83-4.541 6.234-7.515 11.13-7.515h151.083c6.627 0 12 5.373 12 12v58.982c0 17.796-14.478 32.274-32.274 32.274zm-411.726-79.256v46.982c0 4.562 3.711 8.274 8.274 8.274h403.452c4.563 0 8.274-3.712 8.274-8.274v-46.982h-130.982l-9.127 22.646c-1.83 4.541-6.234 7.515-11.13 7.515h-117.738c-4.896 0-9.3-2.974-11.13-7.514l-9.127-22.647z"/><path d="m403.943 140.7h-34.235v-26.569c0-5.545-3.8-10.369-9.192-11.667l-22.05-5.308c-1.229-3.404-2.633-6.752-4.204-10.027l11.747-19.052c2.937-4.763 2.192-10.922-1.795-14.848l-28.454-28.019c-3.893-3.834-9.886-4.553-14.577-1.75l-19.469 11.64c-3.402-1.603-6.883-3.032-10.426-4.281l-5.39-21.71c-1.328-5.352-6.132-9.109-11.646-9.109h-40.241c-5.514 0-10.318 3.757-11.646 9.108l-5.365 21.608c-3.545 1.239-7.032 2.66-10.439 4.254l-19.558-11.693c-4.691-2.805-10.684-2.085-14.577 1.75l-28.455 28.019c-3.987 3.926-4.731 10.085-1.795 14.848l11.692 18.963c-1.579 3.27-2.992 6.614-4.231 10.015l-22.154 5.333c-5.392 1.298-9.191 6.121-9.191 11.667v26.828h-34.235c-17.645 0-32 14.355-32 32v122.993c0 6.627 5.373 12 12 12s12-5.373 12-12v-122.993c0-4.411 3.589-8 8-8h339.887c4.411 0 8 3.589 8 8v122.993c0 6.627 5.373 12 12 12s12-5.373 12-12v-122.993c-.001-17.645-14.356-32-32.001-32zm-200.396-6.887c0-16.825 13.661-30.512 30.453-30.512s30.453 13.688 30.453 30.512c0 2.348-.262 4.649-.779 6.887h-59.349c-.516-2.238-.778-4.538-.778-6.887zm142.161 6.887h-57.696c.285-2.268.441-4.563.441-6.887 0-30.058-24.428-54.512-54.453-54.512s-54.453 24.454-54.453 54.512c0 2.324.157 4.619.441 6.887h-57.696v-17.374l19.469-4.687c4.187-1.008 7.512-4.182 8.714-8.316 1.816-6.248 4.382-12.312 7.626-18.024 2.164-3.81 2.079-8.495-.22-12.224l-10.257-16.637 15.029-14.799 17.267 10.323c3.651 2.182 8.185 2.27 11.916.229 5.836-3.192 12.031-5.712 18.411-7.49 4.165-1.161 7.383-4.472 8.425-8.668l4.724-19.033h21.47l4.745 19.113c1.039 4.184 4.241 7.488 8.39 8.658 6.377 1.798 12.564 4.336 18.389 7.543 3.737 2.057 8.286 1.977 11.946-.212l17.197-10.28 15.029 14.798-10.3 16.707c-2.292 3.718-2.384 8.388-.238 12.193 3.228 5.724 5.776 11.795 7.573 18.047 1.193 4.151 4.525 7.341 8.725 8.352l19.386 4.666z"/></g><g><path d="m118.81 279.931 72.942 37.57v-23.014l-43.62-21.865 43.62-21.865v-23.014l-72.942 37.57z"/><path d="m204.486 318.747h22.035l41.322-106.992h-22.18z"/><path d="m276.248 227.763v23.007l43.926 21.852-43.926 21.852v23.007l72.942-37.411v-14.896z"/></g><circle cx="424.094" cy="334.72" r="13"/><circle cx="44.094" cy="334.72" r="13"/></g></svg>