<svg id="SVGRoot" height="512" viewBox="0 0 24 24" width="512" xmlns="http://www.w3.org/2000/svg" xmlns:svg="http://www.w3.org/2000/svg"><g id="g16717" stroke-linecap="round" stroke-linejoin="round"><path id="path16698" d="m12 2c-5.5169196 0-10 4.4830804-10 10 0 5.162435 3.92108 9.420275 8.949219 9.945312.847782.088525 1.550781-.621941 1.550781-1.445312v-4c0-.282064.217936-.5.5-.5h6.5c.971941 0 1.946772-.625455 2.197266-1.619141.195612-.775978.297383-1.573406.302734-2.376953a.50005.50005 0 0 0 0-.003906c0-5.5169196-4.48308-10-10-10zm0 1c4.975814 0 8.998923 4.0224879 9 8.998047-.005.72254-.09754 1.440917-.273438 2.138672-.102019.404703-.755229.863281-1.226562.863281h-6.5c-.822504 0-1.5.677496-1.5 1.5v4c0 .281198-.195004.477309-.445312.451172-4.5269132-.4727-8.054688-4.294451-8.054688-8.951172 0-4.9764801 4.0235199-9 9-9z"/><path id="path16701" d="m6.5 10c-.822504 0-1.5.677496-1.5 1.5s.677496 1.5 1.5 1.5 1.5-.677496 1.5-1.5-.677496-1.5-1.5-1.5zm0 1c.2820644 0 .5.217936.5.5s-.2179356.5-.5.5-.5-.217936-.5-.5.2179356-.5.5-.5z"/><path id="path16704" d="m17.5 10c-.822504 0-1.5.677496-1.5 1.5s.677496 1.5 1.5 1.5 1.5-.677496 1.5-1.5-.677496-1.5-1.5-1.5zm0 1c.282064 0 .5.217936.5.5s-.217936.5-.5.5-.5-.217936-.5-.5.217936-.5.5-.5z"/><path id="path16707" d="m9 6c-.822504 0-1.5.677496-1.5 1.5s.677496 1.5 1.5 1.5 1.5-.677496 1.5-1.5-.677496-1.5-1.5-1.5zm0 1c.2820644 0 .5.2179356.5.5s-.2179356.5-.5.5-.5-.2179356-.5-.5.2179356-.5.5-.5z"/><path id="path16710" d="m15 6c-.822504 0-1.5.677496-1.5 1.5s.677496 1.5 1.5 1.5 1.5-.677496 1.5-1.5-.677496-1.5-1.5-1.5zm0 1c.282064 0 .5.2179356.5.5s-.217936.5-.5.5-.5-.2179356-.5-.5.217936-.5.5-.5z"/></g></svg>