<?xml version="1.0" encoding="UTF-8"?> <svg xmlns="http://www.w3.org/2000/svg" id="Layer_1" data-name="Layer 1" viewBox="0 0 885 906.07"><defs><style> .cls-1 { fill: none; stroke: #17becf; stroke-linecap: round; stroke-linejoin: round; stroke-width: 60px; } </style></defs><path class="cls-1" d="M442.5,373.75v-160.42M442.5,534.17h.46M213.33,717.5v107.04c0,24.42,0,36.63,5.01,42.9,4.35,5.45,10.96,8.63,17.94,8.62,8.02,0,17.56-7.64,36.63-22.89l109.33-87.47c22.33-17.87,33.5-26.8,45.94-33.15,11.03-5.64,22.77-9.76,34.91-12.25,13.68-2.81,27.98-2.81,56.58-2.81h115.33c77.01,0,115.51,0,144.92-14.99,25.87-13.18,46.91-34.21,60.09-60.09,14.99-29.42,14.99-67.92,14.99-144.92v-247.5c0-77.01,0-115.51-14.99-144.92-13.18-25.87-34.21-46.91-60.09-60.09-29.42-14.99-67.92-14.99-144.92-14.99H250c-77.01,0-115.51,0-144.92,14.99-25.87,13.18-46.91,34.22-60.09,60.09-14.99,29.41-14.99,67.92-14.99,144.92v284.17c0,42.63,0,63.94,4.69,81.42,12.71,47.45,49.78,84.51,97.23,97.23,17.49,4.68,38.8,4.68,81.42,4.68Z"></path></svg> 