<?xml version="1.0" encoding="UTF-8"?> <svg xmlns="http://www.w3.org/2000/svg" id="Layer_1" data-name="Layer 1" viewBox="0 0 976.67 971.26"><defs><style> .cls-1 { fill: none; stroke: #17becf; stroke-linecap: round; stroke-linejoin: round; stroke-width: 60px; } </style></defs><path class="cls-1" d="M30,485.63l441.93,220.97c6.01,3.01,9.02,4.51,12.17,5.1,2.79.52,5.66.52,8.45,0,3.15-.59,6.16-2.09,12.17-5.1l441.93-220.97M30,714.8l441.93,220.97c6.01,3.01,9.02,4.51,12.17,5.1,2.79.52,5.66.52,8.45,0,3.15-.59,6.16-2.09,12.17-5.1l441.93-220.97M30,256.46L471.93,35.49c6.01-3.01,9.02-4.51,12.17-5.1,2.79-.52,5.66-.52,8.45,0,3.15.59,6.16,2.09,12.17,5.1l441.93,220.97-441.93,220.97c-6.01,3.01-9.02,4.51-12.17,5.1-2.79.52-5.66.52-8.45,0-3.15-.59-6.16-2.09-12.17-5.1L30,256.46Z"></path></svg> 