<?xml version="1.0" encoding="UTF-8"?> <svg xmlns="http://www.w3.org/2000/svg" id="Layer_1" data-name="Layer 1" viewBox="0 0 885 885"><defs><style> .cls-1 { fill: none; stroke: #17becf; stroke-linecap: round; stroke-linejoin: round; stroke-width: 60px; } </style></defs><path class="cls-1" d="M213.33,580l137.5-137.5-137.5-137.5M488.33,580h183.33M250,855h385c77.01,0,115.51,0,144.92-14.99,25.87-13.18,46.91-34.21,60.09-60.09,14.99-29.42,14.99-67.92,14.99-144.92V250c0-77.01,0-115.51-14.99-144.92-13.18-25.87-34.21-46.91-60.09-60.09-29.42-14.99-67.92-14.99-144.92-14.99H250c-77.01,0-115.51,0-144.92,14.99-25.87,13.18-46.91,34.22-60.09,60.09-14.99,29.41-14.99,67.92-14.99,144.92v385c0,77.01,0,115.51,14.99,144.92,13.18,25.87,34.22,46.91,60.09,60.09,29.41,14.99,67.92,14.99,144.92,14.99Z"></path></svg> 