<?xml version="1.0" encoding="UTF-8"?> <svg xmlns="http://www.w3.org/2000/svg" id="Layer_1" data-name="Layer 1" viewBox="0 0 1008.33 1008.33"><defs><style> .cls-1 { fill: none; stroke: #17becf; stroke-linecap: round; stroke-linejoin: round; stroke-width: 60px; } </style></defs><path class="cls-1" d="M77.31,671.23l87.46-50.49c4.74-2.73,10.3-3.68,15.67-2.68l172.08,32.21c14.14,2.64,27.2-8.24,27.13-22.63l-.67-150.77c-.02-4.1,1.06-8.13,3.13-11.66l86.84-148.67c4.52-7.74,4.12-17.4-1.04-24.73l-146.22-208.13M825.01,176.87c-252.08,121.05-114.59,281.46-68.75,304.38,86.03,43.01,205.67,45.83,205.67,45.83.38-7.59.57-15.23.57-22.92,0-253.13-205.2-458.33-458.33-458.33S45.83,251.04,45.83,504.17s205.2,458.33,458.33,458.33c7.69,0,15.33-.19,22.92-.56M722.23,959.74l-145.14-382.65,382.65,145.14-169.68,67.82-67.82,169.68Z"></path></svg> 