<?xml version="1.0" encoding="UTF-8"?> <svg xmlns="http://www.w3.org/2000/svg" id="Layer_1" data-name="Layer 1" viewBox="0 0 976.67 976.67"><defs><style> .cls-1 { fill: none; stroke: #17becf; stroke-linecap: round; stroke-linejoin: round; stroke-width: 60px; } </style></defs><path class="cls-1" d="M855,488.33c0,202.51-164.16,366.67-366.67,366.67M855,488.33c0-202.5-164.16-366.67-366.67-366.67M855,488.33h91.67M488.33,855c-202.5,0-366.67-164.16-366.67-366.67M488.33,855v91.67M121.67,488.33c0-202.5,164.16-366.67,366.67-366.67M121.67,488.33H30M488.33,121.67V30M625.83,488.33c0,75.94-61.56,137.5-137.5,137.5s-137.5-61.56-137.5-137.5,61.56-137.5,137.5-137.5,137.5,61.56,137.5,137.5Z"></path></svg> 