<?xml version="1.0" encoding="UTF-8"?> <svg xmlns="http://www.w3.org/2000/svg" id="Layer_1" data-name="Layer 1" viewBox="0 0 246 62"><defs><style> .cls-1 { fill: none; } .cls-2 { fill: #fff; } .cls-3 { fill: #2bbecb; } </style></defs><path class="cls-2" d="M82.36,60.67c2.56,0,4.87-.28,6.93-.83v-11.1h-.42c-2.06.17-3.73.25-5.01.25-.72,0-1.29-.22-1.71-.67-.42-.44-.63-1.06-.63-1.84v-16.53h7.68v-9.6h-7.68V7.31l-12.86,3.42v9.6h-6.21l3.45,9.6h2.76v18.2c0,4.17,1.13,7.31,3.38,9.39,2.25,2.09,5.69,3.13,10.31,3.13"></path><path class="cls-2" d="M117.55,59.83h12.94v-23.88c0-5.68-1.36-9.89-4.09-12.65-2.73-2.75-6.62-4.13-11.69-4.13-1.67,0-3.3.29-4.88.88-1.59.58-3.13,1.41-4.63,2.46V1l-12.94,3.47v55.36h12.94v-27.13c1.11-.5,2.34-.92,3.67-1.25,1.34-.33,2.53-.5,3.59-.5,1.45,0,2.66.43,3.63,1.29.97.86,1.46,1.93,1.46,3.21v24.38Z"></path><path class="cls-2" d="M172.03,39.54c0-4.06-.7-7.62-2.09-10.69-1.39-3.06-3.51-5.44-6.35-7.14-2.84-1.7-6.35-2.55-10.52-2.55-3.95,0-7.46.88-10.52,2.63-3.06,1.75-5.43,4.2-7.1,7.35-1.67,3.15-2.5,6.72-2.5,10.73s.92,7.7,2.75,10.9c1.84,3.2,4.45,5.71,7.85,7.51,3.4,1.81,7.35,2.71,11.86,2.71,2.51,0,5.2-.22,8.1-.67,2.89-.45,5.26-1.09,7.1-1.92v-10.94h-.84c-2.34,1.06-4.62,1.79-6.85,2.21-2.23.42-4.73.63-7.51.63-1.78,0-3.35-.29-4.72-.88-1.36-.58-2.44-1.39-3.21-2.42-.78-1.03-1.25-2.18-1.42-3.46h25.63c.22-1.28.33-2.62.33-4.01ZM146.07,36.45c.17-1.22.56-2.35,1.17-3.38.61-1.03,1.43-1.84,2.46-2.42,1.03-.58,2.21-.88,3.55-.88,2,0,3.51.6,4.51,1.79,1,1.2,1.59,2.83,1.75,4.88h-13.44Z"></path><path class="cls-2" d="M198.88,31.69h.33v-11.86c-1.28-.44-2.67-.67-4.17-.67-3.34,0-6.67.39-9.98,1.17-3.31.78-6.64,1.95-9.98,3.51v35.99h12.94v-26.63c1.28-.61,2.49-1.06,3.63-1.34,1.14-.28,2.32-.42,3.55-.42,1.5,0,2.73.08,3.67.25"></path><path class="cls-2" d="M238.91,29.27c-1.78-3.17-4.27-5.65-7.47-7.43-3.2-1.78-6.8-2.67-10.81-2.67s-7.7.89-10.9,2.67c-3.2,1.78-5.69,4.26-7.47,7.43-1.78,3.17-2.67,6.79-2.67,10.85s.9,7.6,2.71,10.77c1.81,3.17,4.31,5.65,7.51,7.43,3.2,1.78,6.8,2.67,10.81,2.67s7.6-.89,10.77-2.67c.03-.02.06-.04.09-.05,3.13-1.78,5.59-4.23,7.38-7.38.14-.25.27-.5.4-.75,1.54-2.99,2.32-6.32,2.32-10.02,0-4.06-.89-7.68-2.67-10.85ZM227.64,44.72c-.72,1.39-1.7,2.49-2.92,3.3-1.03.68-2.17,1.06-3.4,1.16-.23.02-.45.05-.69.05-1.5,0-2.87-.4-4.09-1.21-1.23-.81-2.2-1.91-2.92-3.3-.72-1.39-1.09-2.92-1.09-4.59s.36-3.21,1.09-4.63c.72-1.42,1.7-2.53,2.92-3.34,1.22-.81,2.59-1.21,4.09-1.21s2.87.4,4.09,1.21c1.22.81,2.2,1.92,2.92,3.34.72,1.42,1.09,2.96,1.09,4.63,0,.24-.02.47-.04.7-.09,1.4-.43,2.7-1.05,3.89Z"></path><g><path class="cls-1" d="M50.97,31.65c-.98-1.25-2.38-1.88-4.22-1.88-1.73,0-3.15.4-4.26,1.21-1.11.81-1.89,1.93-2.34,3.38v2.09h12.44c-.11-1.95-.66-3.55-1.63-4.8Z"></path><path class="cls-1" d="M18.82,45.09c-.92.64-1.38,1.49-1.38,2.55,0,.89.29,1.59.88,2.09.58.5,1.32.75,2.21.75,1.11,0,2.25-.12,3.42-.38,1.17-.25,2.25-.63,3.26-1.13v-5.93c-1.84.11-3.46.32-4.88.63-1.42.31-2.59.78-3.51,1.42Z"></path><path class="cls-2" d="M48.76,50.31c-2.23,0-4.02-.29-5.39-.88-1.36-.58-2.44-1.49-3.21-2.71v-3.17h24.55c.22-1.28.33-2.62.33-4.01,0-6.29-1.56-11.27-4.68-14.94-3.12-3.67-7.74-5.51-13.86-5.51-2.17,0-4.23.39-6.18,1.17-1.95.78-3.7,1.84-5.26,3.17-1.39-1.39-3.08-2.46-5.05-3.21-1.98-.75-4.19-1.13-6.64-1.13-2.23,0-4.87.32-7.93.96-3.06.64-5.62,1.43-7.68,2.38v11.02h.83c2.28-1.34,4.62-2.31,7.01-2.92,2.39-.61,4.7-.92,6.93-.92,1.5,0,2.66.35,3.46,1.04.81.7,1.21,1.74,1.21,3.13v1.42c-4.06.28-7.76.86-11.1,1.75-3.34.89-6.12,2.31-8.35,4.26-2.23,1.95-3.34,4.51-3.34,7.68,0,3.9,1.41,6.89,4.22,8.97,2.81,2.09,6.75,3.13,11.81,3.13,2.17,0,4.47-.38,6.89-1.13,2.42-.75,4.77-1.74,7.06-2.96,2.06,1.28,4.27,2.28,6.64,3.01,2.37.72,4.94,1.09,7.72,1.09,1.23,0,2.51-.06,3.84-.17v-10.67c-1.21.1-2.49.15-3.84.15ZM40.16,34.37c.44-1.45,1.22-2.57,2.34-3.38,1.11-.81,2.53-1.21,4.26-1.21,1.84,0,3.24.63,4.22,1.88.97,1.25,1.52,2.85,1.63,4.8h-12.44v-2.09ZM27.22,48.98c-1,.5-2.09.88-3.26,1.13-1.17.25-2.31.38-3.42.38-.89,0-1.63-.25-2.21-.75-.58-.5-.88-1.2-.88-2.09,0-1.06.46-1.91,1.38-2.55.92-.64,2.09-1.11,3.51-1.42,1.42-.31,3.05-.51,4.88-.63v5.93Z"></path><path class="cls-3" d="M63.62,58.41v-10.94h-.75c-2.39,1.06-4.66,1.79-6.8,2.21-1.08.21-2.24.37-3.46.47v10.67c1.31-.11,2.65-.28,4.05-.5,2.81-.45,5.13-1.09,6.97-1.92Z"></path></g></svg> 