<?xml version="1.0" encoding="UTF-8"?> <svg xmlns="http://www.w3.org/2000/svg" id="Layer_1" data-name="Layer 1" viewBox="0 0 388.21 433.31"><defs><style> .cls-1 { fill: #17becf; } .cls-2 { fill: #fff; } </style></defs><path class="cls-1" d="M0,132.5v168.3c0,17.27,9.22,33.24,24.18,41.87l145.75,84.15c14.96,8.64,33.39,8.64,48.35,0l145.75-84.15c14.96-8.64,24.18-24.6,24.18-41.87v-168.3c0-17.27-9.22-33.24-24.18-41.87L218.28,6.48c-14.96-8.64-33.39-8.64-48.35,0L24.18,90.63C9.22,99.27,0,115.23,0,132.5Z"></path><g id="Translate"><g><path class="cls-2" d="M235.06,282.44h29.02l-14.53-30.94-14.49,30.94Z"></path><path class="cls-2" d="M302.22,196.19h-79.43v19.52c0,17.34-14.1,31.45-31.45,31.45h-19.52v79.43c0,13.85,11.25,25.06,25.06,25.06h105.34c13.85,0,25.06-11.21,25.06-25.06v-105.34c0-13.85-11.21-25.06-25.06-25.06ZM286.45,315.98c-3.03,1.41-6.6.09-8.01-2.9l-8.74-18.58h-40.31l-8.69,18.58c-1.46,3.1-5.16,4.25-8.01,2.9-3.03-1.45-4.35-5.03-2.9-8.05l34.3-73.17c2.29-4.68,8.79-4.51,10.91,0l34.35,73.17c1.41,3.03.13,6.6-2.9,8.05Z"></path><path class="cls-2" d="M86,240.76h105.34c13.85,0,25.06-11.21,25.06-25.06v-105.34c0-13.85-11.21-25.06-25.06-25.06h-105.34c-13.85,0-25.06,11.21-25.06,25.06v105.34c0,13.85,11.21,25.06,25.06,25.06ZM96.95,129.41h36.56v-10.61c0-2.86,2.3-5.16,5.16-5.16s5.16,2.3,5.16,5.16v10.61c.68,0,38.06,0,36.6,0,2.86,0,5.16,2.3,5.16,5.16s-2.3,5.11-5.16,5.11h-14.36c-.98,16.88-6.73,31.53-16.19,42.95,9.8,6.43,21.01,10.14,31.24,11.55,2.87.4,4.74,2.99,4.43,5.8-.38,2.6-2.6,4.47-5.11,4.47-4.9,0-23.33-4.18-37.84-14.32-11.12,9.72-25.61,15.85-42.53,17.26h-.43c-2.64,0-4.9-2.05-5.11-4.73-.26-2.81,1.87-5.33,4.69-5.54,14.02-1.15,25.95-5.92,35.24-13.51-8.22-7.67-14.87-17.56-18.49-30-.81-2.73.77-5.58,3.49-6.39,2.73-.81,5.58.81,6.39,3.54,3.07,10.61,8.86,19.05,15.98,25.61,8.1-9.63,13-22.12,13.93-36.69h-58.81c-2.86,0-5.16-2.3-5.16-5.11s2.3-5.16,5.16-5.16Z"></path><path class="cls-2" d="M252.69,103.99h28.31c8.93,0,16.19,7.26,16.19,16.19v19.62h-7.02c-3.38,0-5.49,3.66-3.8,6.58l16.36,28.32c1.69,2.92,5.91,2.92,7.6,0l16.35-28.32c1.69-2.92-.42-6.58-3.8-6.58h-7.02v-19.62c0-19.22-15.64-34.86-34.86-34.86h-28.31c-5.16,0-9.34,4.18-9.34,9.34s4.18,9.34,9.34,9.34Z"></path><path class="cls-2" d="M135.54,332.95h-28.31c-8.93,0-16.19-7.26-16.19-16.19v-19.62h7.02c3.38,0,5.49-3.66,3.8-6.58l-16.35-28.32c-1.69-2.92-5.91-2.92-7.6,0l-16.36,28.32c-1.69,2.92.42,6.58,3.8,6.58h7.02v19.62c0,19.22,15.64,34.86,34.86,34.86h28.31c5.16,0,9.34-4.18,9.34-9.34s-4.18-9.34-9.34-9.34Z"></path></g></g></svg> 