<?xml version="1.0" encoding="UTF-8"?> <svg xmlns="http://www.w3.org/2000/svg" id="Layer_1" data-name="Layer 1" viewBox="0 0 595.57 595.57"><defs><style> .cls-1 { fill: none; } .cls-2 { fill: #fff; } .cls-3 { fill: #28bfcc; } </style></defs><path class="cls-1" d="M452.67,235.86c-9.23-11.5-22.52-17.26-39.91-17.26-16.34,0-29.78,3.71-40.31,11.12-10.55,7.42-17.92,17.77-22.13,31.05v19.17h117.76c-1.07-17.89-6.2-32.59-15.41-44.09Z"></path><path class="cls-1" d="M148.39,359.31c-8.69,5.88-13.04,13.68-13.04,23.39,0,8.18,2.76,14.57,8.3,19.17s12.51,6.9,20.95,6.9c10.53,0,21.33-1.15,32.4-3.45,11.07-2.3,21.33-5.75,30.82-10.35v-54.44c-17.39,1.03-32.8,2.95-46.23,5.75-13.43,2.81-24.5,7.16-33.2,13.03Z"></path><path class="cls-2" d="M431.73,407.24c-21.09,0-38.08-2.69-50.98-8.05-12.91-5.37-23.05-13.68-30.42-24.93v-29.13h232.36c2.1-11.76,3.16-24.02,3.16-36.81,0-57.76-14.76-103.51-44.26-137.25-29.51-33.74-73.24-50.61-131.2-50.61-20.55,0-40.04,3.59-58.48,10.74-18.45,7.17-35.05,16.87-49.79,29.13-13.18-12.77-29.12-22.62-47.81-29.52-18.71-6.9-39.66-10.35-62.84-10.35-21.08,0-46.11,2.94-75.08,8.82-28.99,5.88-53.22,13.17-72.71,21.85v101.21h7.9c21.6-12.26,43.74-21.21,66.39-26.84,22.65-5.62,44.51-8.43,65.6-8.43,14.22,0,25.16,3.2,32.8,9.59,7.63,6.4,11.46,15.98,11.46,28.75v13.04c-38.46,2.56-73.5,7.93-105.11,16.1-31.62,8.18-57.96,21.22-79.03,39.11-21.08,17.9-31.62,41.4-31.62,70.54,0,35.79,13.3,63.26,39.91,82.42,26.6,19.17,63.88,28.76,111.83,28.76,20.55,0,42.29-3.45,65.2-10.35,22.92-6.9,45.17-15.97,66.79-27.22,19.48,11.77,40.43,20.97,62.83,27.61,22.39,6.64,46.76,9.97,73.11,9.97,11.68,0,23.8-.53,36.36-1.56v-98c-11.44.95-23.56,1.42-36.36,1.42ZM350.32,260.78c4.21-13.28,11.58-23.64,22.13-31.05,10.53-7.41,23.97-11.12,40.31-11.12,17.39,0,30.68,5.75,39.91,17.26,9.21,11.5,14.35,26.2,15.41,44.09h-117.76v-19.17ZM227.82,394.97c-9.49,4.6-19.75,8.05-30.82,10.35-11.07,2.3-21.87,3.45-32.4,3.45-8.44,0-15.41-2.3-20.95-6.9-5.53-4.6-8.3-10.99-8.3-19.17,0-9.7,4.34-17.5,13.04-23.39,8.69-5.87,19.76-10.22,33.2-13.03,13.43-2.8,28.85-4.72,46.23-5.75v54.44Z"></path><path class="cls-3" d="M572.4,481.61v-100.45h-7.11c-22.66,9.72-44.13,16.49-64.41,20.32-10.23,1.93-21.17,3.37-32.8,4.33v98c12.35-1.02,25.13-2.54,38.33-4.57,26.6-4.1,48.61-9.97,65.99-17.64Z"></path></svg> 