<svg xmlns="http://www.w3.org/2000/svg" viewBox="0 0 600 600" style="enable-background:new 0 0 600 600" xml:space="preserve"><path style="fill:#febe10" d="m228.353 293.564-42.146-99.157c-1.219-2.868.886-6.049 4.002-6.049h251.847a4.349 4.349 0 0 1 4.349 4.348v27.44c0 9.947 10.768 16.164 19.383 11.191l126.751-73.18c8.615-4.974 8.615-17.408 0-22.381l-126.752-73.18c-8.614-4.974-19.383 1.243-19.383 11.191v27.44a4.348 4.348 0 0 1-4.349 4.348H77.266c-7.127 0-12.905 5.778-12.905 12.905 0 .585.118 1.163.347 1.701l28.978 68.177 45.89 107.968a13.395 13.395 0 0 0 12.327 8.155h71.279c.915 0 1.828-.26 2.55-.821 2.991-2.325 4.172-6.446 2.621-10.096zm143.294 29.603 42.146 99.157c1.219 2.868-.886 6.049-4.002 6.049H157.944a4.348 4.348 0 0 1-4.348-4.349v-27.44c0-9.947-10.768-16.164-19.383-11.191L7.461 458.575c-8.614 4.974-8.615 17.408 0 22.381l126.752 73.18c8.614 4.974 19.383-1.243 19.383-11.19v-27.44a4.348 4.348 0 0 1 4.348-4.348h364.791c7.127 0 12.905-5.778 12.905-12.905 0-.585-.118-1.163-.346-1.701l-28.978-68.177-45.89-107.968a13.395 13.395 0 0 0-12.327-8.155H376.82c-.915 0-1.828.26-2.55.821-2.993 2.324-4.174 6.444-2.623 10.094z"/></svg>