<?xml version="1.0" encoding="UTF-8"?>
<svg id="Layer_2" data-name="Layer 2" xmlns="http://www.w3.org/2000/svg" viewBox="0 0 810 221">
  <defs>
    <style>
      .cls-1 {
        fill: none;
      }

      .cls-2 {
        fill: #2dbfcc;
      }

      .cls-3 {
        fill: #fff;
      }
    </style>
  </defs>
  <path class="cls-3" d="M269.52,209.39c8.53,0,16.23-.93,23.1-2.78v-37.01h-1.39c-6.87.56-12.43.83-16.7.83-2.41,0-4.31-.74-5.71-2.23-1.39-1.48-2.09-3.52-2.09-6.12v-55.1h25.6v-32h-25.6V31.55l-42.86,11.41v32.01h-20.69l11.5,32h9.19v60.67c0,13.92,3.76,24.35,11.27,31.31,7.52,6.96,18.97,10.44,34.37,10.44"/>
  <path class="cls-3" d="M386.83,206.61h43.14v-79.6c0-18.93-4.55-32.98-13.64-42.16-9.09-9.18-22.08-13.78-38.96-13.78-5.57,0-10.99.97-16.28,2.92-5.29,1.95-10.44,4.69-15.45,8.21V10.5l-43.14,11.56v184.55h43.14v-90.45c3.71-1.67,7.79-3.06,12.25-4.17,4.45-1.11,8.44-1.67,11.97-1.67,4.82,0,8.86,1.44,12.11,4.31,3.25,2.88,4.87,6.45,4.87,10.72v81.27Z"/>
  <path class="cls-3" d="M568.44,138.98c0-13.54-2.32-25.42-6.96-35.62-4.64-10.2-11.69-18.13-21.15-23.8-9.46-5.66-21.15-8.49-35.07-8.49-13.18,0-24.86,2.92-35.07,8.77-10.21,5.84-18.09,14.01-23.66,24.49-5.57,10.49-8.35,22.4-8.35,35.76s3.06,25.65,9.18,36.32c6.12,10.67,14.84,19.02,26.16,25.05,11.32,6.03,24.49,9.04,39.52,9.04,8.35,0,17.35-.74,27-2.23,9.65-1.49,17.53-3.62,23.66-6.4v-36.46h-2.78c-7.79,3.52-15.4,5.98-22.82,7.38-7.42,1.39-15.77,2.09-25.05,2.09-5.94,0-11.18-.97-15.72-2.92-4.55-1.95-8.12-4.63-10.71-8.07-2.6-3.43-4.17-7.28-4.73-11.55h85.44c.74-4.26,1.11-8.72,1.11-13.36ZM481.88,128.68c.56-4.08,1.85-7.84,3.89-11.27,2.04-3.43,4.77-6.12,8.21-8.07,3.43-1.95,7.38-2.92,11.83-2.92,6.68,0,11.69,2,15.03,5.98,3.34,3.99,5.29,9.42,5.85,16.28h-44.81Z"/>
  <path class="cls-3" d="M657.92,112.81h1.11v-39.52c-4.27-1.48-8.91-2.23-13.92-2.23-11.13,0-22.22,1.3-33.26,3.9-11.04,2.6-22.13,6.5-33.26,11.69v119.95h43.14v-88.78c4.27-2.04,8.3-3.52,12.11-4.45,3.8-.93,7.75-1.39,11.83-1.39,5.01,0,9.09.28,12.25.83"/>
  <path class="cls-3" d="M791.36,104.75c-5.94-10.58-14.24-18.83-24.91-24.77-10.67-5.93-22.68-8.9-36.04-8.9s-25.65,2.97-36.32,8.9c-10.67,5.94-18.97,14.19-24.91,24.77-5.94,10.57-8.9,22.64-8.9,36.18s3.01,25.32,9.04,35.9c6.03,10.57,14.38,18.83,25.05,24.77,10.67,5.94,22.68,8.9,36.04,8.9s25.33-2.97,35.9-8.9c.1-.06.2-.12.3-.18,10.43-5.92,18.64-14.12,24.61-24.59.47-.82.89-1.67,1.32-2.51,5.13-9.95,7.72-21.07,7.72-33.39,0-13.54-2.97-25.6-8.9-36.18ZM753.78,156.23c-2.41,4.64-5.66,8.3-9.74,10.99-3.44,2.27-7.24,3.52-11.34,3.88-.76.07-1.52.16-2.3.16-5.01,0-9.56-1.34-13.64-4.03-4.08-2.69-7.33-6.35-9.74-10.99-2.41-4.63-3.62-9.74-3.62-15.31s1.2-10.71,3.62-15.45c2.41-4.73,5.66-8.44,9.74-11.13,4.08-2.69,8.63-4.03,13.64-4.03s9.55,1.35,13.64,4.03c4.08,2.69,7.33,6.4,9.74,11.13,2.41,4.73,3.62,9.88,3.62,15.45,0,.8-.08,1.57-.13,2.35-.3,4.65-1.42,8.99-3.49,12.96Z"/>
  <g>
    <path class="cls-1" d="M164.9,112.68c-3.25-4.17-7.93-6.26-14.05-6.26-5.75,0-10.49,1.35-14.19,4.04-3.71,2.69-6.31,6.45-7.79,11.27v6.96h41.47c-.38-6.49-2.18-11.83-5.43-16Z"/>
    <path class="cls-1" d="M57.75,157.48c-3.06,2.13-4.59,4.97-4.59,8.49,0,2.97.97,5.29,2.92,6.96,1.95,1.67,4.4,2.51,7.38,2.51,3.71,0,7.51-.42,11.41-1.25,3.9-.84,7.51-2.09,10.85-3.76v-19.76c-6.12.37-11.55,1.07-16.28,2.09-4.73,1.02-8.63,2.6-11.69,4.73Z"/>
    <path class="cls-3" d="M157.52,174.88c-7.42,0-13.41-.98-17.95-2.92-4.55-1.95-8.12-4.96-10.71-9.05v-10.57h81.82c.74-4.27,1.11-8.72,1.11-13.36,0-20.96-5.2-37.57-15.58-49.82-10.39-12.25-25.79-18.37-46.2-18.37-7.24,0-14.1,1.3-20.59,3.9-6.5,2.6-12.34,6.12-17.53,10.57-4.64-4.63-10.25-8.21-16.84-10.71-6.59-2.51-13.96-3.76-22.13-3.76-7.42,0-16.24,1.07-26.44,3.2-10.21,2.14-18.74,4.78-25.6,7.93v36.73h2.78c7.61-4.45,15.4-7.7,23.38-9.74,7.98-2.04,15.67-3.06,23.1-3.06,5.01,0,8.86,1.16,11.55,3.48,2.69,2.32,4.03,5.8,4.03,10.43v4.73c-13.54.93-25.88,2.88-37.01,5.84-11.13,2.97-20.41,7.7-27.83,14.19-7.42,6.5-11.13,15.03-11.13,25.6,0,12.99,4.68,22.96,14.05,29.92,9.37,6.96,22.49,10.44,39.38,10.44,7.24,0,14.89-1.25,22.96-3.76,8.07-2.51,15.91-5.8,23.52-9.88,6.86,4.27,14.24,7.61,22.12,10.02,7.89,2.41,16.46,3.62,25.74,3.62,4.11,0,8.38-.19,12.8-.57v-35.57c-4.03.34-8.3.52-12.8.52ZM128.85,121.72c1.48-4.82,4.08-8.58,7.79-11.27,3.71-2.69,8.44-4.04,14.19-4.04,6.12,0,10.8,2.09,14.05,6.26,3.24,4.17,5.05,9.51,5.43,16h-41.47v-6.96ZM85.72,170.42c-3.34,1.67-6.96,2.92-10.85,3.76-3.9.84-7.7,1.25-11.41,1.25-2.97,0-5.43-.84-7.38-2.51-1.95-1.67-2.92-3.99-2.92-6.96,0-3.52,1.53-6.35,4.59-8.49,3.06-2.13,6.96-3.71,11.69-4.73,4.73-1.02,10.16-1.71,16.28-2.09v19.76Z"/>
    <path class="cls-2" d="M207.06,201.87v-36.46h-2.51c-7.98,3.53-15.54,5.98-22.68,7.38-3.6.7-7.45,1.22-11.55,1.57v35.57c4.35-.37,8.85-.92,13.5-1.66,9.37-1.49,17.12-3.62,23.24-6.4Z"/>
  </g>
</svg>