<?xml version="1.0" encoding="UTF-8"?> <svg xmlns="http://www.w3.org/2000/svg" xmlns:xlink="http://www.w3.org/1999/xlink" id="Layer_1" data-name="Layer 1" viewBox="0 0 476.55 211.73"><defs><style> .cls-1 { fill: url(#linear-gradient); } </style><linearGradient id="linear-gradient" x1="166.32" y1="-36.17" x2="330.83" y2="248.76" gradientUnits="userSpaceOnUse"><stop offset=".05" stop-color="#2c3972"></stop><stop offset=".25" stop-color="#720aa6"></stop><stop offset=".44" stop-color="#9b3a89"></stop><stop offset=".62" stop-color="#bc3282"></stop><stop offset=".81" stop-color="#d32c7e"></stop><stop offset=".94" stop-color="#fc7123"></stop></linearGradient></defs><path class="cls-1" d="M63.92,186.85c-18.6-16.58-27.9-43.58-27.9-80.99s9.3-64.41,27.9-80.99C82.51,8.29,109.88,0,146.02,0s63.5,8.29,82.11,24.87c18.6,16.58,27.9,43.58,27.9,80.99s-9.3,64.41-27.9,80.99c-18.6,16.58-45.97,24.87-82.11,24.87s-63.51-8.29-82.11-24.87ZM170.1,137.27c4.78-6.06,7.17-16.53,7.17-31.41s-2.39-25.35-7.17-31.41c-4.78-6.06-12.81-9.09-24.07-9.09s-19.29,3.03-24.07,9.09c-4.78,6.06-7.17,16.53-7.17,31.41s2.39,25.35,7.17,31.41c4.78,6.06,12.8,9.09,24.07,9.09s19.29-3.03,24.07-9.09ZM288.55,189.88c-15.31-14.56-22.96-35.87-22.96-63.93v-35.08c0-17.22,4.09-32.73,12.28-46.55,8.18-13.82,20.09-24.66,35.71-32.52,15.62-7.86,34.06-11.8,55.32-11.8,12.33,0,23.06.75,32.21,2.23,9.14,1.49,18.07,3.94,26.78,7.33v55.8c-7.87-3.4-15.84-5.9-23.92-7.49-8.08-1.59-16.9-2.39-26.47-2.39-8.29,0-15.46.96-21.52,2.87-6.06,1.91-10.68,4.3-13.87,7.17s-4.78,5.79-4.78,8.77v1.91c4.04-2.34,9.62-4.25,16.74-5.74,7.12-1.48,13.87-2.23,20.25-2.23,25.72,0,44.53,5.74,56.44,17.22,11.9,11.48,17.86,28.7,17.86,51.66s-7.23,41.13-21.68,54.53c-14.46,13.39-37.52,20.09-69.19,20.09s-53.89-7.28-69.19-21.84ZM374.65,154.17c3.61-3.08,5.42-7.81,5.42-14.19s-1.59-11.16-4.78-14.35c-3.19-3.19-8.61-4.78-16.26-4.78-6.38,0-13.61,1.91-21.68,5.74v10.2c0,7.87,1.7,13.5,5.1,16.9,3.4,3.4,8.71,5.1,15.94,5.1s12.65-1.54,16.26-4.62Z"></path></svg> 