<?xml version="1.0" encoding="UTF-8"?> <svg xmlns="http://www.w3.org/2000/svg" xmlns:xlink="http://www.w3.org/1999/xlink" id="Layer_1" data-name="Layer 1" viewBox="0 0 476.55 211.73"><defs><style> .cls-1 { fill: url(#linear-gradient); } </style><linearGradient id="linear-gradient" x1="119.4" y1="242.49" x2="374.4" y2="-12.51" gradientUnits="userSpaceOnUse"><stop offset=".05" stop-color="#2c3972"></stop><stop offset=".25" stop-color="#720aa6"></stop><stop offset=".44" stop-color="#9b3a89"></stop><stop offset=".62" stop-color="#bc3282"></stop><stop offset=".81" stop-color="#d32c7e"></stop><stop offset=".94" stop-color="#fc7123"></stop></linearGradient></defs><path class="cls-1" d="M63.92,186.85c-18.6-16.58-27.9-43.58-27.9-80.99s9.3-64.41,27.9-80.99C82.51,8.29,109.88,0,146.02,0s63.5,8.29,82.11,24.87c18.6,16.58,27.9,43.58,27.9,80.99s-9.3,64.41-27.9,80.99c-18.6,16.58-45.97,24.87-82.11,24.87s-63.51-8.29-82.11-24.87ZM170.1,137.27c4.78-6.06,7.17-16.53,7.17-31.41s-2.39-25.35-7.17-31.41c-4.78-6.06-12.81-9.09-24.07-9.09s-19.29,3.03-24.07,9.09c-4.78,6.06-7.17,16.53-7.17,31.41s2.39,25.35,7.17,31.41c4.78,6.06,12.8,9.09,24.07,9.09s19.29-3.03,24.07-9.09ZM265.59,174.42c5.95-9.57,12.64-18.49,20.09-26.79,7.44-8.29,16.37-17,26.79-26.15,13.6-11.69,22.64-20.03,27.1-25.03,4.46-4.99,6.7-10.25,6.7-15.78,0-9.99-7.33-14.99-22-14.99-17.22,0-34.76,3.83-52.61,11.48V13.07c9.57-4.04,20.73-7.22,33.48-9.57,12.75-2.34,25.93-3.51,39.54-3.51,26.57,0,46.6,6.01,60.11,18.02,13.5,12.01,20.25,28.33,20.25,48.95,0,12.75-2.13,23.23-6.38,31.41-4.25,8.19-12.12,17.38-23.6,27.58l-5.74,5.1c-9.99,8.29-16.48,14.56-19.45,18.81h56.76v58.67h-161.03v-34.12Z"></path></svg> 