<?xml version="1.0" encoding="UTF-8"?> <svg xmlns="http://www.w3.org/2000/svg" xmlns:xlink="http://www.w3.org/1999/xlink" id="Layer_1" data-name="Layer 1" viewBox="0 0 472.52 211.73"><defs><style> .cls-1 { fill: url(#linear-gradient); } </style><linearGradient id="linear-gradient" x1="116.45" y1="-27.82" x2="370.53" y2="226.26" gradientUnits="userSpaceOnUse"><stop offset=".05" stop-color="#2c3972"></stop><stop offset=".25" stop-color="#720aa6"></stop><stop offset=".44" stop-color="#9b3a89"></stop><stop offset=".62" stop-color="#bc3282"></stop><stop offset=".81" stop-color="#d32c7e"></stop><stop offset=".94" stop-color="#fc7123"></stop></linearGradient></defs><path class="cls-1" d="M63.92,186.85c-18.6-16.58-27.9-43.58-27.9-80.99s9.3-64.41,27.9-80.99C82.51,8.29,109.88,0,146.02,0s63.5,8.29,82.11,24.87c18.6,16.58,27.9,43.58,27.9,80.99s-9.3,64.41-27.9,80.99c-18.6,16.58-45.97,24.87-82.11,24.87s-63.51-8.29-82.11-24.87ZM170.1,137.27c4.78-6.06,7.17-16.53,7.17-31.41s-2.39-25.35-7.17-31.41c-4.78-6.06-12.81-9.09-24.07-9.09s-19.29,3.03-24.07,9.09c-4.78,6.06-7.17,16.53-7.17,31.41s2.39,25.35,7.17,31.41c4.78,6.06,12.8,9.09,24.07,9.09s19.29-3.03,24.07-9.09ZM300.35,208.7c-13.61-2.02-24.87-5.05-33.8-9.09v-58.67c7.02,3.4,16.53,6.27,28.54,8.61,12.01,2.34,21.52,3.51,28.54,3.51,8.5,0,14.67-1.22,18.49-3.67,3.83-2.44,5.74-6.11,5.74-11s-1.49-8.02-4.46-10.04c-2.98-2.02-7.76-3.03-14.35-3.03h-63.45v-30.29l5.42-91.83h143.81l-4.78,58.67h-72.7l-.96,13.07h15.62c24.66,0,43.26,5.63,55.8,16.9,12.54,11.27,18.81,27.74,18.81,49.42s-7.6,38.58-22.8,51.34c-15.2,12.75-37.68,19.13-67.44,19.13-10.42,0-22.43-1.01-36.03-3.03Z"></path></svg> 