<?xml version="1.0" encoding="UTF-8"?> <svg xmlns="http://www.w3.org/2000/svg" xmlns:xlink="http://www.w3.org/1999/xlink" id="Layer_1" data-name="Layer 1" viewBox="0 0 478.05 211.73"><defs><style> .cls-1 { fill: url(#linear-gradient); } </style><linearGradient id="linear-gradient" x1="36.02" y1="105.86" x2="431.4" y2="105.86" gradientUnits="userSpaceOnUse"><stop offset=".05" stop-color="#2c3972"></stop><stop offset=".25" stop-color="#720aa6"></stop><stop offset=".44" stop-color="#9b3a89"></stop><stop offset=".62" stop-color="#bc3282"></stop><stop offset=".81" stop-color="#d32c7e"></stop><stop offset=".94" stop-color="#fc7123"></stop></linearGradient></defs><path class="cls-1" d="M63.92,186.85c-18.6-16.58-27.9-43.58-27.9-80.99s9.3-64.41,27.9-80.99C82.51,8.29,109.88,0,146.02,0s63.5,8.29,82.11,24.87c18.6,16.58,27.9,43.58,27.9,80.99s-9.3,64.41-27.9,80.99c-18.6,16.58-45.97,24.87-82.11,24.87s-63.51-8.29-82.11-24.87ZM170.1,137.27c4.78-6.06,7.17-16.53,7.17-31.41s-2.39-25.35-7.17-31.41c-4.78-6.06-12.81-9.09-24.07-9.09s-19.29,3.03-24.07,9.09c-4.78,6.06-7.17,16.53-7.17,31.41s2.39,25.35,7.17,31.41c4.78,6.06,12.8,9.09,24.07,9.09s19.29-3.03,24.07-9.09ZM301.31,208.06c-15.31-2.44-27.21-5.37-35.71-8.77v-58.35c8.93,4.25,18.92,7.44,29.97,9.57,11.05,2.13,21.25,3.19,30.61,3.19s16.1-.9,20.25-2.71c4.15-1.8,6.22-5.26,6.22-10.36,0-3.4-1.49-6.06-4.46-7.97-2.98-1.91-7.65-2.87-14.03-2.87h-37.63l4.78-48.79h30.93c6.16,0,10.52-.9,13.07-2.71,2.55-1.8,3.83-4.83,3.83-9.09,0-3.4-2.07-6.11-6.22-8.13-4.15-2.02-10.58-3.03-19.29-3.03-9.78,0-19.67,1.17-29.65,3.51-9.99,2.34-18.49,5.42-25.51,9.25V12.75c9.14-3.83,20.03-6.91,32.68-9.25,12.65-2.34,25.24-3.51,37.79-3.51,18.07,0,33.8,2.66,47.19,7.97,13.39,5.32,23.7,12.65,30.93,22,7.22,9.36,10.84,19.88,10.84,31.57,0,17.86-5.42,32.52-16.26,44,13.18,8.29,19.77,21.9,19.77,40.81,0,21.9-8.45,38.26-25.35,49.11-16.9,10.84-39.28,16.26-67.12,16.26-9.78,0-22.32-1.23-37.63-3.67Z"></path></svg> 