<?xml version="1.0" encoding="UTF-8"?> <svg xmlns="http://www.w3.org/2000/svg" xmlns:xlink="http://www.w3.org/1999/xlink" id="Layer_1" data-name="Layer 1" viewBox="0 0 472.52 211.73"><defs><style> .cls-1 { fill: url(#linear-gradient); } </style><linearGradient id="linear-gradient" x1="53.4" y1="28.91" x2="442.01" y2="170.36" gradientUnits="userSpaceOnUse"><stop offset=".05" stop-color="#2c3972"></stop><stop offset=".25" stop-color="#720aa6"></stop><stop offset=".44" stop-color="#9b3a89"></stop><stop offset=".62" stop-color="#bc3282"></stop><stop offset=".81" stop-color="#d32c7e"></stop><stop offset=".94" stop-color="#fc7123"></stop></linearGradient></defs><path class="cls-1" d="M63.92,186.85c-18.6-16.58-27.9-43.58-27.9-80.99s9.3-64.41,27.9-80.99C82.51,8.29,109.88,0,146.02,0s63.5,8.29,82.11,24.87c18.6,16.58,27.9,43.58,27.9,80.99s-9.3,64.41-27.9,80.99c-18.6,16.58-45.97,24.87-82.11,24.87s-63.51-8.29-82.11-24.87ZM170.1,137.27c4.78-6.06,7.17-16.53,7.17-31.41s-2.39-25.35-7.17-31.41c-4.78-6.06-12.81-9.09-24.07-9.09s-19.29,3.03-24.07,9.09c-4.78,6.06-7.17,16.53-7.17,31.41s2.39,25.35,7.17,31.41c4.78,6.06,12.8,9.09,24.07,9.09s19.29-3.03,24.07-9.09ZM346.27,174.1h-87.05v-48.79L357.43,3.19h66v109.05h17.22v61.86h-17.22v34.44h-77.17v-34.44ZM360.62,115.43v-29.65l-27.1,29.65h27.1Z"></path></svg> 